<mxfile host="app.diagrams.net" modified="2024-02-01T04:03:56.674Z" agent="Mozilla/5.0 (Windows NT 10.0; Win64; x64) AppleWebKit/537.36 (KHTML, like Gecko) Chrome/121.0.0.0 Safari/537.36" etag="2kgBx6kiKOZWvnylh_Q4" version="23.0.2" type="device">
  <diagram name="Page-1" id="jT2SBeqgrpjNxPlv2E6v">
    <mxGraphModel dx="542" dy="353" grid="1" gridSize="10" guides="1" tooltips="1" connect="1" arrows="1" fold="1" page="1" pageScale="1" pageWidth="1100" pageHeight="850" math="0" shadow="0">
      <root>
        <mxCell id="0" />
        <mxCell id="1" parent="0" />
        <mxCell id="Uovh46UTTe6WOonXCwlF-88" value="" style="edgeStyle=orthogonalEdgeStyle;rounded=0;orthogonalLoop=1;jettySize=auto;html=1;startArrow=classic;startFill=1;" edge="1" parent="1" source="Uovh46UTTe6WOonXCwlF-80" target="Uovh46UTTe6WOonXCwlF-87">
          <mxGeometry relative="1" as="geometry" />
        </mxCell>
        <mxCell id="Uovh46UTTe6WOonXCwlF-84" value="" style="edgeStyle=orthogonalEdgeStyle;rounded=0;orthogonalLoop=1;jettySize=auto;html=1;startArrow=classic;startFill=1;" edge="1" parent="1" target="Uovh46UTTe6WOonXCwlF-80">
          <mxGeometry relative="1" as="geometry">
            <mxPoint x="380" y="233.19999999999993" as="sourcePoint" />
          </mxGeometry>
        </mxCell>
        <mxCell id="Uovh46UTTe6WOonXCwlF-97" value="" style="shape=image;verticalLabelPosition=bottom;labelBackgroundColor=default;verticalAlign=top;aspect=fixed;imageAspect=0;image=data:image/svg+xml,PHN2ZyB4bWxuczp4bGluaz0iaHR0cDovL3d3dy53My5vcmcvMTk5OS94bGluayIgeG1sbnM9Imh0dHA6Ly93d3cudzMub3JnLzIwMDAvc3ZnIiB4bWw6c3BhY2U9InByZXNlcnZlIiB2aWV3Qm94PSIwIDAgNjQgNjQiIHk9IjBweCIgeD0iMHB4IiBpZD0iT3V0bGluZSIgdmVyc2lvbj0iMS4xIj4mI3hhOzxnPiYjeGE7CTxwYXRoIGQ9Ik0yMCwyOWg3djVoLTEuNjg0MjdjLTAuNDE0MTItMS4xNjE1LTEuNTEzNzktMi0yLjgxNTczLTJjLTEuNjU0MywwLTMsMS4zNDU3LTMsM3MxLjM0NTcsMywzLDMmIzEwOyYjOTsmIzk7YzEuMzAxOTQsMCwyLjQwMTYxLTAuODM4NSwyLjgxNTczLTJIMjhjMC41NTIyNSwwLDEtMC40NDcyNywxLTF2LTZoMnYxMC4xODQyN0MyOS44Mzg1LDM5LjU5ODM5LDI5LDQwLjY5ODA2LDI5LDQyJiMxMDsmIzk7JiM5O2MwLDEuNjU0MywxLjM0NTcsMywzLDNzMy0xLjM0NTcsMy0zYzAtMS4zMDE5NC0wLjgzODUtMi40MDE2MS0yLTIuODE1NzNWMjloMnY2YzAsMC41NTI3MywwLjQ0NzI3LDEsMSwxaDIuNjg0MzMmIzEwOyYjOTsmIzk7YzAuNDE0MTIsMS4xNjE1LDEuNTEzNzMsMiwyLjgxNTY3LDJjMS42NTQzLDAsMy0xLjM0NTcsMy0zcy0xLjM0NTctMy0zLTNjLTEuMzAxOTQsMC0yLjQwMTYxLDAuODM4NS0yLjgxNTczLDJIMzd2LTVoNiYjMTA7JiM5OyYjOTtjMy44NTkzOCwwLDctMy4xNDA2Miw3LTdjMC0zLjM1OTM4LTIuMzI2MTctNi4xNjg5NS01LjUzMTI1LTYuODQzNzVjLTAuMjAxMTctMS4xNTMzMi0wLjc0NzA3LTIuMjEyODktMS41ODAwOC0zLjA0NDkyJiMxMDsmIzk7JiM5O2MtMS41MjUzOS0xLjUyNzM0LTMuNzI2NTYtMi4wMzYxMy01LjczNzMtMS40MDIzNEMzNS45NDkyMiw4LjQ1NTA4LDMzLjU5MDgyLDcsMzEsN2MtMi43NTczMiwwLTUuMjA3MDMsMS41OTE4LTYuMzQ0MjQsNC4wNDAwNCYjMTA7JiM5OyYjOTtjLTEuNjM1NzQtMC4xODI2Mi0zLjI4OTU1LDAuMzE3MzgtNC41NTY2NCwxLjQwMTM3Yy0xLjQzMTY0LDEuMjI0NjEtMi4xODA2NiwzLjA0MDA0LTIuMDY4MzYsNC45MDEzNyYjMTA7JiM5OyYjOTtDMTUuNjQ2NDgsMTguMTY2MDIsMTQsMjAuNDExMTMsMTQsMjNDMTQsMjYuMzA4NTksMTYuNjkxNDEsMjksMjAsMjl6IE0yMi41LDM2Yy0wLjU1MTI3LDAtMS0wLjQ0ODI0LTEtMXMwLjQ0ODczLTEsMS0xJiMxMDsmIzk7JiM5O3MxLDAuNDQ4MjQsMSwxUzIzLjA1MTI3LDM2LDIyLjUsMzZ6IE00MS41LDM0YzAuNTUxNzYsMCwxLDAuNDQ4MjQsMSwxcy0wLjQ0ODI0LDEtMSwxcy0xLTAuNDQ4MjQtMS0xUzQwLjk0ODI0LDM0LDQxLjUsMzR6IE0zMiw0MyYjMTA7JiM5OyYjOTtjLTAuNTUxMjcsMC0xLTAuNDQ4MjQtMS0xczAuNDQ4NzMtMSwxLTFzMSwwLjQ0ODI0LDEsMVMzMi41NTEyNyw0MywzMiw0M3ogTTE5LjMxMzQ4LDE5LjA3MTI5JiMxMDsmIzk7JiM5O2MwLjU1NjIyLTAuMDk2ODMsMC45MjgwOC0wLjY0OTkzLDAuODA0NjktMS4yMDIxNWMtMC4zMjM3My0xLjQ1NzAyLDAuMTY2OTgtMi45NTUwNSwxLjI4MTIxLTMuOTA4MTcmIzEwOyYjOTsmIzk7YzAuOTgyMjQtMC44NDAyMiwyLjM4MTYtMS4xNTQ0NywzLjYyOTkyLTAuODIyM2MwLjUxNDY1LDAuMTM1NzQsMS4wNDY4OC0wLjE1NTI3LDEuMjA4OTgtMC42NjIxMSYjMTA7JiM5OyYjOTtDMjYuOTAyODMsMTAuMzk3NDYsMjguODE2NDEsOSwzMSw5YzIuMDk4NjEsMCwzLjk4NDM0LDEuMzQxNzcsNC42OTEzOSwzLjMzOTc5YzAuMjAwMzIsMC41NjYwOCwwLjg3OTc4LDAuODM2ODcsMS40MTExNSwwLjU0ODg4JiMxMDsmIzk7JiM5O2MxLjQ1OTk2LTAuNzc0NDEsMy4yMTc3Ny0wLjUxODU1LDQuMzcyMDcsMC42MzY3MmMwLjY2OTkyLDAuNjY4OTUsMS4wNTI3MywxLjU2NzM4LDEuMDc5MSwyLjUzMDI3JiMxMDsmIzk7JiM5O2MwLjAxNDY1LDAuNTA2ODQsMC40MDQzLDAuOTIyODUsMC45MDkxOCwwLjk2ODc1QzQ2LjA0OTgsMTcuMjYwNzQsNDgsMTkuMzk5NDEsNDgsMjJjMCwyLjc1Njg0LTIuMjQzMTYsNS01LDVIMjAmIzEwOyYjOTsmIzk7Yy0yLjIwNTU3LDAtNC0xLjc5Mzk1LTQtNEMxNiwyMS4wNTc2NSwxNy4zOTM1MSwxOS40MDUzMywxOS4zMTM0OCwxOS4wNzEyOXoiLz4mI3hhOwk8cGF0aCBkPSJNMjIuODY1MjMsMjMuOTIyODVjMC41MTE3MiwwLjIxMzg3LDEuMDk1MjEtMC4wMjkzLDEuMzA3NjItMC41MzgwOUwyNC4zMzMxOSwyM2gyLjgzMzYyJiMxMDsmIzk7JiM5O2MwLDAsMC4xNTk2NiwwLjM4MzEzLDAuMTYwMzQsMC4zODQ3NmMwLjIwMzI2LDAuNDg3NzYsMC44MjA1NCwwLjc0MTk5LDEuMzA3NjIsMC41MzgwOSYjMTA7JiM5OyYjOTtjMC41MDk3Ny0wLjIxMTkxLDAuNzUwNDktMC43OTc4NSwwLjUzODA5LTEuMzA3NjJsLTIuNS02QzI2LjUxNzU4LDE2LjI0MzE2LDI2LjE1MzgxLDE2LDI1Ljc1LDE2JiMxMDsmIzk7JiM5O3MtMC43Njc1OCwwLjI0MzE2LTAuOTIyODUsMC42MTUyM2wtMi41LDZDMjIuMTE0NzUsMjMuMTI1LDIyLjM1NTQ3LDIzLjcxMDk0LDIyLjg2NTIzLDIzLjkyMjg1eiBNMjUuNzUsMTkuNTk5NjFMMjYuMzMzNSwyMSYjMTA7JiM5OyYjOTtIMjUuMTY2NUwyNS43NSwxOS41OTk2MXoiLz4mI3hhOwk8cGF0aCBkPSJNMzEuNzUsMjRjMC41NTIyNSwwLDEtMC40NDcyNywxLTF2LTEuNWgwLjc1YzEuNTE2NiwwLDIuNzUtMS4yMzM0LDIuNzUtMi43NVMzNS4wMTY2LDE2LDMzLjUsMTZoLTEuNzUmIzEwOyYjOTsmIzk7Yy0wLjU1MjI1LDAtMSwwLjQ0NzI3LTEsMXY2QzMwLjc1LDIzLjU1MjczLDMxLjE5Nzc1LDI0LDMxLjc1LDI0eiBNMzIuNzUsMThoMC43NWMwLjQxMzA5LDAsMC43NSwwLjMzNjkxLDAuNzUsMC43NSYjMTA7JiM5OyYjOTtzLTAuMzM2OTEsMC43NS0wLjc1LDAuNzVoLTAuNzVWMTh6Ii8+JiN4YTsJPHBhdGggZD0iTTM4Ljc1LDI0YzAuNTUyNzMsMCwxLTAuNDQ3MjcsMS0xdi02YzAtMC41NTI3My0wLjQ0NzI3LTEtMS0xcy0xLDAuNDQ3MjctMSwxdjZDMzcuNzUsMjMuNTUyNzMsMzguMTk3MjcsMjQsMzguNzUsMjR6Ii8+JiN4YTsJPGNpcmNsZSByPSIxIiBjeT0iNDgiIGN4PSIzMiIvPiYjeGE7CTxwYXRoIGQ9Ik01NiwzMGgtOGMtMC41NTI3MywwLTEsMC40NDcyNy0xLDF2MWMwLDYuODYzMjgtNC42Mzc3LDEyLjg0Mjc3LTExLjI3ODMyLDE0LjU0MTAyJiMxMDsmIzk7JiM5O2MtMC41MzUxNiwwLjEzNjcyLTAuODU3NDIsMC42ODE2NC0wLjcyMDcsMS4yMTY4czAuNjgyNjIsMC44NTg0LDEuMjE2OCwwLjcyMDdDNDMuNzQzMTYsNDYuNTUzNzEsNDksMzkuNzc3MzQsNDksMzJoNnYzLjEwNDQ5JiMxMDsmIzk7JiM5O2MtMi4zNTY0NSwwLjQxNTA0LTQuMzI0MjIsMS45Nzg1Mi01LjI2MTcyLDQuMjQzMTZjLTAuOTM4NDgsMi4yNjQ2NS0wLjY1MjM0LDQuNzYwNzQsMC43MTk3Myw2LjcyMDdsLTQuMzg5NjUsNC4zODk2NSYjMTA7JiM5OyYjOTtjLTEuOTU4MDEtMS4zNzMwNS00LjQ1ODAxLTEuNjU5MTgtNi43MjA3LTAuNzE5NzNjLTIuMjY0NjUsMC45Mzc1LTMuODI4MTIsMi45MDUyNy00LjI0MzE2LDUuMjYxNzJoLTYuMjA4OTgmIzEwOyYjOTsmIzk7Yy0wLjQxNTA0LTIuMzU2NDUtMS45NzgwMy00LjMyNDIyLTQuMjQyNjgtNS4yNjE3MmMtMi4yNjUxNC0wLjkzOTQ1LTQuNzYxMjMtMC42NTMzMi02LjcyMTE5LDAuNzE5NzNsLTQuMzkwMTQtNC4zODk2NSYjMTA7JiM5OyYjOTtjMS4zNzMwNS0xLjk1OTk2LDEuNjU4NjktNC40NTYwNSwwLjcyMDctNi43MjA3UzExLjM1NjkzLDM1LjUxOTUzLDksMzUuMTA0NDlWMzJoNmMwLDcuNzc4MzIsNS4yNTYzNSwxNC41NTM3MSwxMi43ODIyMywxNi40Nzg1MiYjMTA7JiM5OyYjOTtjMC41MzY2MiwwLjE0MDYyLDEuMDc5NTktMC4xODc1LDEuMjE2MzEtMC43MjA3YzAuMTM2NzItMC41MzUxNi0wLjE4NjA0LTEuMDgwMDgtMC43MjExOS0xLjIxNjgmIzEwOyYjOTsmIzk7QzIxLjYzNzcsNDQuODQyNzcsMTcsMzguODYzMjgsMTcsMzJ2LTFjMC0wLjU1MjczLTAuNDQ3NzUtMS0xLTFIOGMtMC41NTIyNSwwLTEsMC40NDcyNy0xLDF2NSYjMTA7JiM5OyYjOTtjMCwwLjUzNjEzLDAuNDIyODUsMC45NzY1NiwwLjk1ODUsMC45OTkwMmMxLjk4NzMsMC4wODMwMSwzLjY5NDgyLDEuMjc2MzcsNC40NTYwNSwzLjExNDI2JiMxMDsmIzk7JiM5O2MwLjc2MTIzLDEuODM2OTEsMC4zOTc0NiwzLjg4ODY3LTAuOTQ5MjIsNS4zNTI1NGMtMC4zNjMyOCwwLjM5NDUzLTAuMzUwMSwxLjAwNDg4LDAuMDI4ODEsMS4zODM3OWw1LjY1Njc0LDUuNjU2MjUmIzEwOyYjOTsmIzk7YzAuMzc5MzksMC4zODA4NiwwLjk4OTc1LDAuMzkwNjIsMS4zODQyOCwwLjAyOTNjMS40NjM4Ny0xLjM0NjY4LDMuNTE1MTQtMS43MTA5NCw1LjM1MjA1LTAuOTQ5MjImIzEwOyYjOTsmIzk7YzEuODM3ODksMC43NjA3NCwzLjAzMDc2LDIuNDY4NzUsMy4xMTM3Nyw0LjQ1NjA1QzI3LjAyMjk1LDU2LjU3NzE1LDI3LjQ2Mzg3LDU3LDI4LDU3aDgmIzEwOyYjOTsmIzk7YzAuNTM2MTMsMCwwLjk3NjU2LTAuNDIyODUsMC45OTkwMi0wLjk1ODAxYzAuMDgzMDEtMS45ODczLDEuMjc2MzctMy42OTUzMSwzLjExNDI2LTQuNDU2MDUmIzEwOyYjOTsmIzk7YzEuODM3ODktMC43NjE3MiwzLjg4NzctMC4zOTc0Niw1LjM1MjU0LDAuOTQ5MjJjMC4zOTQ1MywwLjM2MTMzLDEuMDA1ODYsMC4zNTE1NiwxLjM4Mzc5LTAuMDI5M2w1LjY1NjI1LTUuNjU2MjUmIzEwOyYjOTsmIzk7YzAuMzc4OTEtMC4zNzg5MSwwLjM5MTYtMC45ODkyNiwwLjAyOTMtMS4zODM3OWMtMS4zNDY2OC0xLjQ2Mzg3LTEuNzEwOTQtMy41MTU2Mi0wLjk0OTIyLTUuMzUyNTQmIzEwOyYjOTsmIzk7YzAuNzYwNzQtMS44Mzc4OSwyLjQ2ODc1LTMuMDMxMjUsNC40NTYwNS0zLjExNDI2QzU2LjU3NzE1LDM2Ljk3NjU2LDU3LDM2LjUzNjEzLDU3LDM2di01QzU3LDMwLjQ0NzI3LDU2LjU1MjczLDMwLDU2LDMweiIvPiYjeGE7PC9nPiYjeGE7PC9zdmc+;" vertex="1" parent="1">
          <mxGeometry x="600" y="178" width="54" height="54" as="geometry" />
        </mxCell>
        <mxCell id="Uovh46UTTe6WOonXCwlF-125" style="edgeStyle=orthogonalEdgeStyle;rounded=0;orthogonalLoop=1;jettySize=auto;html=1;exitX=0;exitY=0.25;exitDx=0;exitDy=0;entryX=0.75;entryY=1;entryDx=0;entryDy=0;" edge="1" parent="1" source="Uovh46UTTe6WOonXCwlF-108" target="Uovh46UTTe6WOonXCwlF-79">
          <mxGeometry relative="1" as="geometry" />
        </mxCell>
        <mxCell id="Uovh46UTTe6WOonXCwlF-108" value="-" style="shape=image;verticalLabelPosition=bottom;labelBackgroundColor=default;verticalAlign=top;aspect=fixed;imageAspect=0;image=https://journeyofthegeekcom.files.wordpress.com/2019/11/azure-dns.png;" vertex="1" parent="1">
          <mxGeometry x="284" y="419.1" width="122" height="122" as="geometry" />
        </mxCell>
        <mxCell id="Uovh46UTTe6WOonXCwlF-109" value="" style="group" vertex="1" connectable="0" parent="1">
          <mxGeometry x="30" y="158.6" width="238" height="160.6" as="geometry" />
        </mxCell>
        <mxCell id="Uovh46UTTe6WOonXCwlF-79" value="" style="shape=image;verticalLabelPosition=bottom;labelBackgroundColor=default;verticalAlign=top;aspect=fixed;imageAspect=0;image=https://www.google.com/chrome/static/images/dark-mode/chrome-classic.png;" vertex="1" parent="Uovh46UTTe6WOonXCwlF-109">
          <mxGeometry width="219.41" height="149.2" as="geometry" />
        </mxCell>
        <mxCell id="Uovh46UTTe6WOonXCwlF-107" value="" style="shape=image;verticalLabelPosition=bottom;labelBackgroundColor=default;verticalAlign=top;aspect=fixed;imageAspect=0;image=https://cdn-icons-png.flaticon.com/512/9131/9131529.png;" vertex="1" parent="Uovh46UTTe6WOonXCwlF-109">
          <mxGeometry x="200" y="122.6" width="38" height="38" as="geometry" />
        </mxCell>
        <mxCell id="Uovh46UTTe6WOonXCwlF-110" value="" style="group" vertex="1" connectable="0" parent="1">
          <mxGeometry x="820" y="380" width="138" height="161.10000000000002" as="geometry" />
        </mxCell>
        <mxCell id="Uovh46UTTe6WOonXCwlF-106" value="" style="shape=image;verticalLabelPosition=bottom;labelBackgroundColor=default;verticalAlign=top;aspect=fixed;imageAspect=0;image=https://icon-library.com/images/mysql-icon/mysql-icon-3.jpg;" vertex="1" parent="Uovh46UTTe6WOonXCwlF-110">
          <mxGeometry x="100" width="38" height="38" as="geometry" />
        </mxCell>
        <mxCell id="Uovh46UTTe6WOonXCwlF-92" value="" style="shape=image;verticalLabelPosition=bottom;labelBackgroundColor=default;verticalAlign=top;aspect=fixed;imageAspect=0;image=https://cdn.freebiesupply.com/logos/large/2x/amazon-database-logo-png-transparent.png;" vertex="1" parent="Uovh46UTTe6WOonXCwlF-110">
          <mxGeometry y="46.900000000000006" width="114.2" height="114.2" as="geometry" />
        </mxCell>
        <mxCell id="Uovh46UTTe6WOonXCwlF-111" value="" style="group" vertex="1" connectable="0" parent="1">
          <mxGeometry x="686" y="133.11" width="174" height="199.08999999999997" as="geometry" />
        </mxCell>
        <mxCell id="Uovh46UTTe6WOonXCwlF-103" value="" style="shape=image;verticalLabelPosition=bottom;labelBackgroundColor=default;verticalAlign=top;aspect=fixed;imageAspect=0;image=https://dz2cdn1.dzone.com/storage/temp/12434118-spring-boot-logo.png;" vertex="1" parent="Uovh46UTTe6WOonXCwlF-111">
          <mxGeometry x="114" width="38" height="34.09" as="geometry" />
        </mxCell>
        <mxCell id="Uovh46UTTe6WOonXCwlF-87" value="" style="shape=image;verticalLabelPosition=bottom;labelBackgroundColor=default;verticalAlign=top;aspect=fixed;imageAspect=0;image=data:image/png,iVBORw0KGgoAAAANSUhEUgAAAgAAAAIACAYAAAD0eNT6AAAACXBIWXMAAAsSAAALEgHS3X78AAAgAElEQVR4Ae3d4XUUNx8vYOmefDe3AkgFdirAqQCnAngriKkgTgUxFcRUELuCmAqCKwhUcHEFukdEzuuXxHh2R7MrjZ7nnP1mZjXaZf6/1WikmFIK1BVjPAkhHIcQjkIIz3UvwFbehRDehxCuU0qXurAuAaCSGOOTEMJpCOFVCOHpKk4KoB0fQwgXIYTzlNInn8t8AkAFMcZc+M9CCAfdnwxA227z9TaldO5zmkcAmKH86s+J9EW3JwHQp6s84mo0YHsCwJZK8b8OIRx2eQIA/bvJ862EgO38nx4bvW+KP0AT8jX4ulyT2ZARgC3EGN8r/gDNuEkpHfk4NmMEYEMxxnPFH6Aph+XazAaMAGwgxpif7f+9mwYDjOX7lNK1z3waIwCbOeupsQCDcY3egBGAiWKM+f7SH100FmBc36WU3vv8H2cEYLrTXhoKMDDX6omMAEwUY/xkpT+A5t2mlDwWOIERgAnK8L/iD9C+g3LN5hECwDS+TAD9cM2e4JvmW9iGZzNbcVV2sPJ4CsBXlMetz2ZupT73mj0EIwDL+1g2rFD8AR5RrpUn5drJggSAaeYMJ13bqAJgunLN9CjfwgSAaeZ8ET/ssqEAKyEALEwAAIABCQAAMCABAAAGJAAAwIAEAAAYkAAAAAMSAABgQAIAAAxIAACAAQkAADAgAQAABmQ74IHEGPMWmcfl9axscnTwQA/clrW47155U6NV7mugX4ARCQArV4pb3lrzVQjhcIOzPSj7cf+9J3eM8SaEcBFCuOy96OkXYHRuAaxULnAxxlyU/gwh/LJhkXvIYTnWn/nYpYh2Rb8A/EUAWJkvCtzLBc/uZU8FT78A/C8BYEVijKflvvSSBe5L+b3el/dukn4B+CcBYAVijE9ijJdlGPqhyWtLyu/5S25DbksrPapfAB4mAHQuxphnrF+HEF40cCa5DdelTXulXwC+TgDo2L0iV2MiWy2H+y52+gXgcQJAp+4VuX0MbT/mYF/FTr8ATCMAdKjcT261yN25K3Y7u/etXwCmEwD61HqRu3NQ2ror+gVgIgGgMzHG88bubT/msLR5UfoFYDMCQEdijHmt+h87bPqPpe2L0C8AmxMA+nKh7Ts/9tJ6bjvQMQGgEzHGvGnN045P4Wk5h6r0C8B27AbYj7PKLc3b2l7e29b2vqPyOqk8qe5sgV+8+gVgCwJAByr/ys0FLk8+O08pfXrgbz7PUC+Pqp2WV42C9/nXbkqpSrHTLwDbcwugD7U2lHkXQniWUjr7SpH7W/6b/Lf535R/W0PNzXH0C8CWBIDGlS1lazze9jaldDylwH2pFLw8W/1thXYc1tgmV78AzCMAtO+kQgtzkZs90awco0axq3FO+gVgBgGgfXOLws0Cw+43M4/RQgBYa798VYzxpGxPnCa88t8t1qayXfN5jPHDxPZ4tf1a9PtCfQJA+57PbOHpNsPbDynHmls4555TjWOstV/+VSm2+emG3zbYIjn/3W/lwl5174JSKD6UBZx6foyT/1rs+8IyBICGVdg17l1Kqfqa8+WYsya/zTk3/bLxMe82SZpa+L/0oubeBeXpjd862beBzVX9vrAcAaBtcyeFLbnW/Nxjzzk3/bKZ0woTJvMkxdlrLpQwYg+E9avyfWFZAkDbZv0aTCldLnV2FY4959z0y0Sl4P5U6XA/VRjaPfPLfxg1vi8sSABYr1rPp3/N3Elv+zBav9SelDX3eCaJjcXn3TABoG2tp+dqk+g2pF+mq31LYe7xTPgbi7UtGiYArFdLRaglo/VLMxdgCx1BWwSAts0pVmu+96ZfpvvQSkNSSs20BRAA1mwXha7HYjpav9QuunOP97FSO+iD0NcwAWC9aqyT/6Ayu3fR91jIaP1S+4mHucdb7AkMmuTzbpgA0LYv96PfyMLLch7P/Pdzzk2/TFRWKPy50uF+rrB64lnZepn1q/F9YUECQNvm/udZcovZuceeMzSoXzZQti6e+2jiTTnO3Lbkz272Bkw0r8r3hWUJAA2rsFzt8xjj3F+k/1COOWvd+pTS1r909ctWctuutvy3VxVGNv5WFkv6wUjAalX9vrAcAaB9cxeuOa+5GlelpVxrLMajXzaQf3mnlE5K4Z0aBPLf/ZD/Xe2h3BIC8mOBb0wMXI3Fvi8s4xv92rzLmb8qD0thqjXsel5hkluNiUH6ZQul8DYxMeveDopL3pIBHmAEoH01LtYvY4wXcw9SjvGyQntqBYC51tgvAJMIAI0ri6fUWFs+F7vrbYa9y17y15WK3E2NBWH0C8A8AkAfam2fmofMP+RtOqcUvFLgzsrM9FmT2+6puRWsfgHYkjkAHUgpXZSCU2MjlYOyPexp+fV6/S/Pnh+V10nlrVs/5nOpdTD9ArA9AaAfudD9WrG1uYC9KK9dWeK5YP0CsAW3ADpRfiH2/LjUIr9y9QvAdgSAvvS8gtqSbdcvABsSADpSVsB702HT31RYve9B+gVgcwJAZ1JKp5Uef9uVm9LmRekXgM0IAH067mQd9dsdrwmuXwAmEgA6VJZQbb3YfS5yu1wTXL8ATCcAdKrsGtdqsbsrckvtbPcg/QIwjQDQsXvFrqV73zf7LnL6BeBxAkDn7hW7bfd6r+mqlSKnXwC+TgBYgXt7vb/e09B3fs/Xre0Drl8AHiYArEhK6bysVf92h2eV3+uovHeT9AvAPwkAK5O3lE0p5dXlvl244OVjf5vfq4dtbPULwP8SAFbqi4L3utKEuJtyrG4LnH4B+IvdAFeuFKM8DH0eY3xWJsYd3Xs9tK3tbdkO9+51vabCpl+A0QkAAymFys5zX9AvwIjcAgCAAQkAADAgAQAABiQAAMCABAAAGJAAAAADEgAAYEACAAAMSAAAgAEJAAAwIAEAAAYkACzvydpPEGABz3TqsgSA5Z3EGIUAgInKNfNYfy1LAFje0xDCZYzRlxngETHGvB33Zbl2siDbAU8zd7/35yGE32OMu2ovwMjmXrOHYARgmvc9NBKAz1yzJ4gppeYb2YIY46cQwsHo/QDQuNuUknlXExgBmO6yl4YCDMy1eiIjABOViSl/dNFYgHF9l1JyC2ACIwATlS/Uuy4aCzCmd4r/dALAZs56aizAYFyjNyAAbCCldB1CeNNNgwHG8aZco5nIHIAtxBjzENNhdw0HWKeblNKRz3YzRgC2k1f1u+mx4QArc2PZ4O0IAFtIKX0SAgD27nPxL9dkNiQAbOleCLjq8gQA+nal+M8jAMyQv3gppZMQwuu8+lS3JwLQj3ytfZ2vvYr/PCYBVlK2rzwNIbyyixVAdR9DCBchhHOFvw4BYAExxpNye+Co7AQIwObelY19rlNKlvitTABoRIwxL2Dx05at+TmlZAEMYCdcr9bBHAAAGJAAAAADEgAAYEACAAAMSAAAgAEJAAAwIAEAAAYkAADAgAQAABiQAAAAAxIAAGBAAgAADEgAAIABCQAAMCABAAAGJAAAwIAEAAAYkAAAAAMSAABgQAIAAAxIAACAAQkAADAgAQAABiQAAMCABAAAGJAAAAADEgAAYEACAAAMSAAAgAEJAAAwIAEAAAYkAADAgAQAABiQAAAAA4opJZ97ZTHGkxDCcQjhKITwfFUnB7A770II70MI1ymlS/1elwBQSYzxSQjhNITwKoTwdBUnBdCOjyGEixDCeUrpk89lPgGgghhjLvxnIYSD7k8GoG23+XqbUjr3Oc0jAMxQfvXnRPqi25MA6NNVHnE1GrA9AWBLpfhfhxAOuzwBgP7d5PlWQsB2PAWwBcUfoAn5GnxdrslsyAjAFmKM7xV/gGbcpJSOfBybMQKwoRjjueIP0JTDcm1mA0YANhBjzM/2/95NgwHG8n1K6dpnPo0RgM2c9dRYgMG4Rm/ACMBEMcZ8f+mPLhoLMK7vUkrvff6PMwIw3WkvDQUYmGv1REYAJooxfrLSH0DzblNKHgucwAjABGX4X/EHaN9BuWbzCAFgGl8mgH64Zk/wTfMtbMOzma24KjtYeTwF4CvK49ZnM7dSn3vNHoIRgOV9LBtWKP4AjyjXypNy7WRBAsA0c4aTrm1UATBduWZ6lG9hAsA0c76IH3bZUICVEAAWJgAAwIAEAAAYkAAAAAMSAABgQAIAAAxIAACAAQkAADAgAQAABiQAAMCABAAAGJAAAAADsh3wQGKMeYvM4/J6VjY5OnigB27LWtx3r7yp0Sr3NdAvwIgEgJUrxS1vrfkqhHC4wdkelP24/96TO8Z4E0K4CCFc9l709AswOrcAVioXuBhjLkp/hhB+2bDIPeSwHOvPfOxSRLuiXwD+IgCszBcF7uWCZ/eyp4KnXwD+lwCwIjHG03JfeskC96X8Xu/LezdJvwD8kwCwAjHGJzHGyzIM/dDktSXl9/wltyG3pZUe1S8ADxMAOhdjzDPWr0MILxo4k9yG69KmvdIvAF8nAHTsXpGrMZGtlsN9Fzv9AvA4AaBT94rcPoa2H3Owr2KnXwCmEQA6VO4nt1rk7twVu53d+9YvANMJAH1qvcjdOSht3RX9AjCRANCZGON5Y/e2H3NY2rwo/QKwGQGgIzHGvFb9jx02/cfS9kXoF4DNCQB9udD2nR97aT23HeiYANCJGGPetOZpx6fwtJxDVfoFYDt2A+zHWeWW5m1tL+9ta3vfUXmdVJ5Ud7bAL179ArAFAaADlX/l5gKXJ5+dp5Q+PfA3n2eol0fVTsurRsH7/Gs3pVSl2OkXgO25BdCHWhvKvAshPEspnX2lyP0t/03+2/xvyr+toebmOPoFYEsCQOPKlrI1Hm97m1I6nlLgvlQKXp6t/rZCOw5rbJOrXwDmEQDad1KhhbnIzZ5oVo5Ro9jVOCf9AjCDANC+uUXhZoFh95uZx2ghAKy1X74qxnhStidOE1757xZrU9mu+TzG+GFie7zafi36faE+AaB9z2e28HSb4e2HlGPNLZxzz6nGMdbaL/+qFNv8dMNvG2yRnP/ut3Jhr7p3QSkUH8oCTj0/xsl/LfZ9YRkCQMMq7Br3LqVUfc35csxZk9/mnJt+2fiYd5skTS38X3pRc++C8vTGb53s28Dmqn5fWI4A0La5k8KWXGt+7rHnnJt+2cxphQmTeZLi7DUXShixB8L6Vfm+sCwBoG2zfg2mlC6XOrsKx55zbvplolJwf6p0uJ8qDO2e+eU/jBrfFxYkAKxXrefTv2bupLd9GK1fak/Kmns8k8TG4vNumADQttbTc7VJdBvSL9PVvqUw93gm/I3F2hYNEwDWq6Ui1JLR+qWZC7CFjqAtAkDb5hSrNd970y/TfWilISmlZtoCCABrtotC12MxHa1fahfducf7WKkd9EHoa5gAsF411sl/UJndu+h7LGS0fqn9xMPc4y32BAZN8nk3TABo25f70W9k4WU5j2f++znnpl8mKisU/lzpcD9XWD3xrGy9zPrV+L6wIAGgbXP/8yy5xezcY88ZGtQvGyhbF899NPGmHGduW/JnN3sDJppX5fvCsgSAhlVYrvZ5jHHuL9J/KMectW59SmnrX7r6ZSu5bVdb/turCiMbfyuLJf1gJGC1qn5fWI4A0L65C9ec11yNq9JSrjUW49EvG8i/vFNKJ6XwTg0C+e9+yP+u9lBuCQH5scA3JgauxmLfF5bxjX5t3uXMX5WHpTDVGnY9rzDJrcbEIP2yhVJ4m5iYdW8HxSVvyQAPMALQvhoX65cxxou5BynHeFmhPbUCwFxr7BeASQSAxpXFU2qsLZ+L3fU2w95lL/nrSkXupsaCMPoFYB4BoA+1tk/NQ+Yf8jadUwpeKXBnZWb6rMlt99TcCla/AGzJHIAOpJQuSsGpsZHKQdke9rT8er3+l2fPj8rrpPLWrR/zudQ6mH4B2J4A0I9c6H6t2NpcwF6U164s8VywfgHYglsAnSi/EHt+XGqRX7n6BWA7AkBfel5Bbcm26xeADQkAHSkr4L3psOlvKqze9yD9ArA5AaAzKaXTSo+/7cpNafOi9AvAZgSAPh13so767Y7XBNcvABMJAB0qS6i2Xuw+F7ldrgmuXwCmEwA6VXaNa7XY3RW5pXa2e5B+AZhGAOjYvWLX0r3vm30XOf0C8DgBoHP3it22e73XdNVKkdMvAF8nAKzAvb3eX+9p6Du/5+vW9gHXLwAPEwBWJKV0Xtaqf7vDs8rvdVTeu0n6BeCfBICVyVvKppTy6nLfLlzw8rG/ze/Vwza2+gXgfwkAK/VFwXtdaULcTTlWtwVOvwD8xW6AK1eKUR6GPo8xPisT447uvR7a1va2bId797peU2HTL8DoBICBlEJl57kv6BdgRG4BAMCABAAAGJAAAAADEgAAYEACAAAMSAAAgAEJAAAwIAEAAAYkAADAgAQAABiQAAAAAxIAlvdk7ScIsIBnOnVZAsDyTmKMQgDAROWaeay/liUALO9pCOEyxujLDPCIGGPejvuyXDtZkO2Ap5m73/vzEMLvMcZdtRdgZHOv2UMwAjDN+x4aCcBnrtkTxJRS841sQYzxUwjhYPR+AGjcbUrJvKsJjABMd9lLQwEG5lo9kRGAicrElD+6aCzAuL5LKbkFMIERgInKF+pdF40FGNM7xX86AWAzZz01FmAwrtEbEAA2kFK6DiG86abBAON4U67RTGQOwBZijHmI6bC7hgOs001K6chnuxkjANvJq/rd9NhwgJW5sWzwdgSALaSUPgkBAHv3ufiXazIbEgC2dC8EXHV5AgB9u1L85xEAZshfvJTSSQjhdV59qtsTAehHvta+ztdexX8ekwArKdtXnoYQXtnFCqC6jyGEixDCucJfhwCwgBjjSbk9cFR2AgRgc+/Kxj7XKSVL/FYmADQixpgXsPhpy9b8nFKyAAawE65X62AOAAAMSAAAgAEJAAAwIAEAAAYkAADAgAQAABiQAAAAAxIAAGBAAgAADEgAAIABCQAAMCABAAAGJAAAwIAEAAAYkAAAAAMSAABgQAIAAAxIAACAAQkAADAgAQAABiQAAMCABAAAGJAAAAADEgAAYEACAAAMSAAAgAEJAAAwIAEAAAYkAADAgAQAABiQAAAAAxIAAGBAAgAADEgAAIABxZSSz72yGONJCOE4hHAUQni+qpMD2J13IYT3IYTrlNKlfq9LAKgkxvgkhHAaQngVQni6ipMCaMfHEMJFCOE8pfTJ5zKfAFBBjDEX/rMQwkH3JwPQttt8vU0pnfuc5hEAZii/+nMifdHtSQD06SqPuBoN2J4AsKVS/K9DCIddngBA/27yfCshYDueAtiC4g/QhHwNvi7XZDZkBGALMcb3ij9AM25SSkc+js0YAdhQjPFc8QdoymG5NrMBIwAbiDHmZ/t/76bBAGP5PqV07TOfxgjAZs56aizAYFyjN2AEYKIYY76/9EcXjQUY13cppfc+/8cZAZjutJeGAgzMtXoiIwATxRg/WekPoHm3KSWPBU5gBGCCMvyv+AO076Bcs3mEADCNLxNAP1yzJ/im+Ra24dnMVlyVHaw8ngLwFeVx67OZW6nPvWYPwQjA8j6WDSsUf4BHlGvlSbl2siABYJo5w0nXNqoAmK5cMz3KtzABYJo5X8QPu2wowEoIAAsTAABgQAIAAAxIAACAAQkAADAgAQAABiQAAMCABAAAGJAAAAADEgAAYEACAAAMSAAAgAHZDnggMca8ReZxeT0rmxwdPNADt2Ut7rtX3tRolfsa6BdgRALAypXilrfWfBVCONzgbA/Kftx/78kdY7wJIVyEEC57L3r6BRidWwArlQtcjDEXpT9DCL9sWOQecliO9Wc+dimiXdEvAH8RAFbmiwL3csGze9lTwdMvAP9LAFiRGONpuS+9ZIH7Un6v9+W9m6RfAP5JAFiBGOOTGONlGYZ+aPLakvJ7/pLbkNvSSo/qF4CHCQCdizHmGevXIYQXDZxJbsN1adNe6ReArxMAOnavyNWYyFbL4b6LnX4BeJwA0Kl7RW4fQ9uPOdhXsdMvANMIAB0q95NbLXJ37ordzu596xeA6QSAPrVe5O4clLbuin4BmEgA6EyM8byxe9uPOSxtXpR+AdiMANCRGGNeq/7HDpv+Y2n7IvQLwOYEgL5caPvOj720ntsOdEwA6ESMMW9a87TjU3hazqEq/QKwHbsB9uOsckvztraX97a1ve+ovE4qT6o7W+AXr34B2IIA0IHKv3JzgcuTz85TSp8e+JvPM9TLo2qn5VWj4H3+tZtSqlLs9AvA9twC6EOtDWXehRCepZTOvlLk/pb/Jv9t/jfl39ZQc3Mc/QKwJQGgcWVL2RqPt71NKR1PKXBfKgUvz1Z/W6EdhzW2ydUvAPMIAO07qdDCXORmTzQrx6hR7Gqck34BmEEAaN/conCzwLD7zcxjtBAA1tovXxVjPCnbE6cJr/x3i7WpbNd8HmP8MLE9Xm2/Fv2+UJ8A0L7nM1t4us3w9kPKseYWzrnnVOMYa+2Xf1WKbX664bcNtkjOf/dbubBX3bugFIoPZQGnnh/j5L8W+76wDAGgYRV2jXuXUqq+5nw55qzJb3POTb9sfMy7TZKmFv4vvai5d0F5euO3TvZtYHNVvy8sRwBo29xJYUuuNT/32HPOTb9s5rTChMk8SXH2mgsljNgDYf2qfF9YlgDQtlm/BlNKl0udXYVjzzk3/TJRKbg/VTrcTxWGds/88h9Gje8LCxIA1qvW8+lfM3fS2z6M1i+1J2XNPZ5JYmPxeTdMAGhb6+m52iS6DemX6WrfUph7PBP+xmJti4YJAOvVUhFqyWj90swF2EJH0BYBoG1zitWa773pl+k+tNKQlFIzbQEEgDXbRaHrsZiO1i+1i+7c432s1A76IPQ1TABYrxrr5D+ozO5d9D0WMlq/1H7iYe7xFnsCgyb5vBsmALTty/3oN7LwspzHM//9nHPTLxOVFQp/rnS4nyusnnhWtl5m/Wp8X1iQANC2uf95ltxidu6x5wwN6pcNlK2L5z6aeFOOM7ct+bObvQETzavyfWFZAkDDKixX+zzGOPcX6T+UY85atz6ltPUvXf2yldy2qy3/7VWFkY2/lcWSfjASsFpVvy8sRwBo39yFa85rrsZVaSnXGovx6JcN5F/eKaWTUninBoH8dz/kf1d7KLeEgPxY4BsTA1djse8Ly/hGvzbvcuavysNSmGoNu55XmORWY2KQftlCKbxNTMy6t4PikrdkgAcYAWhfjYv1yxjjxdyDlGO8rNCeWgFgrjX2C8AkAkDjyuIpNdaWz8Xuepth77KX/HWlIndTY0EY/QIwjwDQh1rbp+Yh8w95m84pBa8UuLMyM33W5LZ7am4Fq18AtmQOQAdSShel4NTYSOWgbA97Wn69Xv/Ls+dH5XVSeevWj/lcah1MvwBsTwDoRy50v1ZsbS5gL8prV5Z4Lli/AGzBLYBOlF+IPT8utcivXP0CsB0BoC89r6C2ZNv1C8CGBICOlBXw3nTY9DcVVu97kH4B2JwA0JmU0mmlx9925aa0eVH6BWAzAkCfjjtZR/12x2uC6xeAiQSADpUlVFsvdp+L3C7XBNcvANMJAJ0qu8a1WuzuitxSO9s9SL8ATCMAdOxesWvp3vfNvoucfgF4nADQuXvFbtu93mu6aqXI6ReArxMAVuDeXu+v9zT0nd/zdWv7gOsXgIcJACuSUjova9W/3eFZ5fc6Ku/dJP0C8E8CwMrkLWVTSnl1uW8XLnj52N/m9+phG1v9AvC/BICV+qLgva40Ie6mHKvbAqdfAP5iN8CVK8UoD0OfxxiflYlxR/deD21re1u2w717Xa+psOkXYHQCwEBKobLz3Bf0CzAitwAAYEACAAAMSAAAgAEJAAAwIAEAAAYkAADAgAQAABiQAAAAAxIAAGBAAgAADEgAAIABCQDLe7L2EwRYwDOduiwBYHknMUYhAGCics081l/LEgCW9zSEcBlj9GUGeESMMW/HfVmunSzIdsDTzN3v/XkI4fcY467aCzCyudfsIRgBmOZ9D40E4DPX7AliSqn5RrYgxvgphHAwej8ANO42pWTe1QRGAKa77KWhAANzrZ7ICMBEZWLKH100FmBc36WU3AKYwAjAROUL9a6LxgKM6Z3iP50AsJmznhoLMBjX6A0IABtIKV2HEN5002CAcbwp12gmMgdgCzHGPMR02F3DAdbpJqV05LPdjBGA7eRV/W56bDjAytxYNng7AsAWUkqfhACAvftc/Ms1mQ0JAFu6FwKuujwBgL5dKf7zCAAz5C9eSukkhPA6rz7V7YkA9CNfa1/na6/iP49JgJWU7StPQwiv7GIFUN3HEMJFCOFc4a9DAFhAjPGk3B44KjsBArC5d2Vjn+uUkiV+KxMAYMVijHlhlJ+2PMOfU0oWVoGVMgcAAAYkAADAgAQAABiQAAAAAxIAAGBAAgAADEgAAIABCQAAMCABAAAGJAAAwIAEAAAYkAAAAAMSAABgQAIAAAxIAACAAQkAADAgAQAABiQAAMCABAAAGJAAAAADEgAAYEACAKxUjPEohPBsxtk9K8cAViimlHyusAIxxichhJPyOg4hHFQ6q9sQwnUI4TK/UkqffF+gfwIAdC7GmIv9qxDCyx2dydsQwkVK6dp3B/olAECnYoy56J+FEJ7u6Qw+5vdPKV34DkF/BADoTIwxD/Gf77HwfykHgdOU0qXvEvRDAIBOxBjzhL78a/t5oy1+l29FpJQ+NNAW4BGeAoAOxBhPQwjvGy7+obTtfWkr0DgjANCwMrM//+p/0dnndFVGAzwxAI0yAgCNKs/gX3dY/ENp87V1BKBdRgCgQfeKf61n+fclryFwnFJ673sGbTECAI0ps/zXUPxDOYfrck5AQ4wAQEPKL/8/VvqZfGckANphBAAacW/Yf63MCYCGGAGABpRn/N+vZNj/a/KcgGeeDoD9MwIAbbgcoPiHuzkBDbQDhvfN6B0A+xZjzMv6Hi7cjJsywnD3+jdH915Ltucwn3NKyYJBsEduAcAeldEfRnMAAAWMSURBVJ38fl+oBR/LngGXmy7PW25J5Jn7pwvuOfC9HQVhfwQA2JOyyt/7BQrsu7JLX5XiWkLK2QLLEOeAcmQ+AOyHOQCwP7V/XecJdv9JKR3X/GWdj5WPmY9d3qOWp6UPgD0wAgB7UIbY/6z4zvlX/8nSv6bLqMVl5dGAb+0gCLtnBAD246ziu74pv/oXH0rP71FGA95UPGzNvgAmMgIAO1b5138e8r/Yx2cYY3wVQvi10uGMAsCOGQGA3at13/v1vop/+Gs0IL/360qHMxcAdswIAOxYjPFThUV/3qaUXrXw2cUYcxB4OfMwtymlJ5WaBExgBAB2qAybzy3+N439Yj4tbZrjoPQNsCMCAOxWjW1xX7X07HxpS43ibctg2CEBAHakPEL3Yua7vWlxS93SprlPBrwofQTsgAAAu3M8851uG39k7qzCQkFz+wiYSACA3Zlb3C5aXja3tG3uUwkCAOyIAAC7czTznc47+KzmtnFuHwETeQxwCzHGkzLpae79XJjqJqXURXGMMb7fwfbGcOeqjI5d6pHNGAHYQJ6gFGPMX7LfFH92bG8L/myhp7bSv3wt/i1fm00i3YwAMFH5Yl0r/OxJczP/v6KntrIeL8o1mokEgOlODWuyLzW3911aT21ldQ5jjDaXmsgcgAnKr///13xDWatu7v/fMQ+APfu/LT8x0wojANNYoYx96vFC5uLLPrlmTyAATPOsh0YC8Jlr9gQCwDS+TACsigAwzYceGgkAUwkA0wgAAP1wzZ5AAJjGClPsU4+Lm1iQhX1yzZ5AAJigPE7yc/MNZa16fJzOI4Dsy88eAZzGOgAb8Gwze/R9LwvsxBjzjn6/N9AUxtPdmhn7ZARgM8dl4wnYtZ4uai7A7MOV7aQ3YwRgC3YDZA/sBgj/zm6AWxIAYEdijHkI//mMd/s2pdT07OYYY14z488Zh3iXUvIrDnbALQDYnbm75J128FnNbaOdBGFHBADYnbmT+F61vN95adurmYexkyDsiAAAuzO3uB2EEFre6vSstHEOAQB2RACAHSnPJs99iuTHGGNzkwFLm36ceZgrz2/D7ggAsFs1ZipftHQroLTlosKhzOKGHfIUAOxYjPFThaHytymluffbq4gx5uL/cuaxblNKlg+GHTICALtX49fyyxjj3p8KKG2YW/xDpT4BNmAEAHaswrPy9/0npbSX4hljzCMQv1Y6XPNrHMDaGAGAHSuF7m2ld/01xni+63Mo71mr+L9V/GH3jADAHlQeBcjehRBOlp5FXyb8Xc5c0fC+27x3gAAAu2cEAPagFLyaW0zngvyhDMsvohz7Q8Xin50r/rAfRgBgT8qv6bz07dPKLcijAWe1tg8u2/ueVS782cfy69+z/7AHAgDs0cJ75+cCm+/VX276K7vcojgpa/vXDih3vq8VUoDNCQCwZ2VC3dxV9B5zU0Yb3n9lw52je6+lt/N9k1LqYXMjWC0BABow2B76Nyml5pYzhtEIANCAMuT+vsIKga3Ls/6fue8P++cpAGhAuUd/XArkWuVzO1b8oQ1GAKAhZVe9P1b6mXyXUnpo/gGwY0YAoCGlQP6wspGAfC4/KP7QFiMA0KAyEnC9gjkBd8P+ij80xggANKgUzOPy+F6vbhR/aJcAAI26FwKuOvyMrhR/aJsAAA3LM+ZTSnlFvtedzAvIbXyd22y2P7TNHADoRFkr4GKBNflryXsQvLK5D/TBCAB0IhfWlNJxeUrgY0Ot/lhm+R8r/tAPAQA6k1LKm/vk0YD/7DkI5Pf+T25LbpPvEfTFLQDoXNlRMO/V/3JHZ/I234qwkx/0TQCAlYgxPilb+J6UpwdqrSFwW9YkuCxbC5vcBysgAMBKlcWE7r+eTdjbPw/rf7i/dbBH+WCFQgj/H7QZIcHxrgCPAAAAAElFTkSuQmCC;" vertex="1" parent="Uovh46UTTe6WOonXCwlF-111">
          <mxGeometry y="34.089999999999975" width="132" height="132" as="geometry" />
        </mxCell>
        <mxCell id="Uovh46UTTe6WOonXCwlF-93" value="" style="shape=image;verticalLabelPosition=bottom;labelBackgroundColor=default;verticalAlign=top;aspect=fixed;imageAspect=0;image=data:image/svg+xml,PHN2ZyB4bWxuczp4bGluaz0iaHR0cDovL3d3dy53My5vcmcvMTk5OS94bGluayIgeG1sbnM9Imh0dHA6Ly93d3cudzMub3JnLzIwMDAvc3ZnIiB4bWw6c3BhY2U9InByZXNlcnZlIiB2aWV3Qm94PSIwIDAgNjQgNjQiIHk9IjBweCIgeD0iMHB4IiBpZD0iT3V0bGluZSIgdmVyc2lvbj0iMS4xIj4mI3hhOzxnPiYjeGE7CTxwYXRoIGQ9Ik0zOS44Mzg4NywyMy44NjgxNnYwLjQzODg0QzM3Ljc4ODAyLDIyLjIxOTQ4LDM0Ljk1NDQxLDIxLDMyLDIxYy02LjA2NTQzLDAtMTEsNC45MzQ1Ny0xMSwxMSYjMTA7JiM5OyYjOTtjMCwwLjQ5MjY0LDAuMDMzNjksMC45Nzc5NSwwLjEwMDA4LDEuNDQxMjljMC4wNzU4MiwwLjUyOTExLDAuNjAxMTMsMC45MjQ1LDEuMTMxMzYsMC44NDg3NSYjMTA7JiM5OyYjOTtjMC41NDY4OC0wLjA3ODEyLDAuOTI2NzYtMC41ODQ5NiwwLjg0ODE0LTEuMTMxODRDMjMuMDI2ODYsMzIuNzg4MDksMjMsMzIuMzk4NDQsMjMsMzJjMC00Ljk2MjQsNC4wMzc2LTksOS05JiMxMDsmIzk7JiM5O2MyLjQxMjExLDAsNC43MjU3NywwLjk5NDYzLDYuNDAyNjUsMi42OTY3OGgtMC4zOTI0Yy0wLjU1MjI1LDAtMSwwLjQ0Nzc1LTEsMXMwLjQ0Nzc1LDEsMSwxaDIuODI4NjFjMC41NTIyNSwwLDEtMC40NDc3NSwxLTEmIzEwOyYjOTsmIzk7di0yLjgyODYxYzAtMC41NTIyNS0wLjQ0Nzc1LTEtMS0xUzM5LjgzODg3LDIzLjMxNTkyLDM5LjgzODg3LDIzLjg2ODE2eiIvPiYjeGE7CTxwYXRoIGQ9Ik00MC45MjA0MSwzMC44NDE4QzQwLjk3MzE0LDMxLjIxMTkxLDQxLDMxLjYwMTU2LDQxLDMyYzAsNC45NjI4OS00LjAzNzYsOS05LDljLTIuNDExNSwwLTQuNzI0OTEtMC45OTQyLTYuNDAyMDQtMi42OTYyOSYjMTA7JiM5OyYjOTtoMC4zOTE3OGMwLjU1MjI1LDAsMS0wLjQ0NzI3LDEtMXMtMC40NDc3NS0xLTEtMWgtMi44Mjg2MWMtMC41NTIyNSwwLTEsMC40NDcyNy0xLDF2Mi44MjgxMmMwLDAuNTUyNzMsMC40NDc3NSwxLDEsMSYjMTA7JiM5OyYjOTtzMS0wLjQ0NzI3LDEtMVYzOS42OTMzQzI2LjIxMjQ2LDQxLjc4MDQsMjkuMDQ1ODQsNDMsMzIsNDNjNi4wNjU0MywwLDExLTQuOTM0NTcsMTEtMTFjMC0wLjQ5MjY4LTAuMDMzNjktMC45NzgwMy0wLjEwMDEtMS40NDE0MSYjMTA7JiM5OyYjOTtjLTAuMDc3NjQtMC41NDYzOS0wLjU4ODM4LTAuOTI1NzgtMS4xMzEzNS0wLjg0ODE0QzQxLjIyMTY4LDI5Ljc4ODU3LDQwLjg0MTgsMzAuMjk0OTIsNDAuOTIwNDEsMzAuODQxOHoiLz4mI3hhOwk8cGF0aCBkPSJNNTQuMTg3MDEsMjYuMTM0NzdsLTIuMDgxMDUtMC4xMjk4OGMtMC40MTIxMS0xLjM4NTI1LTAuOTY0MzYtMi43MjAyMS0xLjY0ODQ0LTMuOTgzODlsMS4zNzg0Mi0xLjU2MjUmIzEwOyYjOTsmIzk7YzEuMDQ1OS0xLjE4NDU3LDAuOTg5NzUtMi45ODgyOC0wLjEyNzkzLTQuMTA1OTZsLTQuMDYwNTUtNC4wNjA1NWMtMS4xMTc2OC0xLjExOTE0LTIuOTIyMzYtMS4xNzI4NS00LjEwNTk2LTAuMTI4NDImIzEwOyYjOTsmIzk7bC0xLjU2MjUsMS4zNzg5MWMtMS4yNjM2Ny0wLjY4NDA4LTIuNTk4NjMtMS4yMzYzMy0zLjk4Mzg5LTEuNjQ4NDRsLTAuMTI5ODgtMi4wODEwNUMzNy43NjY2LDguMjM1ODQsMzYuNDUxNjYsNywzNC44NzEwOSw3JiMxMDsmIzk7JiM5O2gtNS43NDIxOWMtMS41ODA1NywwLTIuODk1NTEsMS4yMzU4NC0yLjk5NDE0LDIuODEyOTlsLTAuMTI5ODgsMi4wODEwNWMtMS4zODUyNSwwLjQxMjExLTIuNzIwMjEsMC45NjQzNi0zLjk4Mzg5LDEuNjQ4NDQmIzEwOyYjOTsmIzk7bC0xLjU2MjUtMS4zNzg0MmMtMS4xODQwOC0xLjA0NjM5LTIuOTg3My0wLjk4OTI2LTQuMTA1OTYsMC4xMjc5M2wtNC4wNjA1NSw0LjA2MDU1JiMxMDsmIzk7JiM5O2MtMS4xMTc2OCwxLjExNzY4LTEuMTczODMsMi45MjEzOS0wLjEyODQyLDQuMTA1OTZsMS4zNzg5MSwxLjU2MjVjLTAuNjg0MDgsMS4yNjM2Ny0xLjIzNjMzLDIuNTk4NjMtMS42NDg0NCwzLjk4Mzg5JiMxMDsmIzk7JiM5O2wtMi4wODEwNSwwLjEyOTg4QzguMjM1ODQsMjYuMjMzNCw3LDI3LjU0ODM0LDcsMjkuMTI4OTF2NS43NDIxOWMwLDEuNTgwNTcsMS4yMzU4NCwyLjg5NTUxLDIuODEyOTksMi45OTQxNGwyLjA4MTA1LDAuMTI5ODgmIzEwOyYjOTsmIzk7YzAuNDEyMTEsMS4zODUyNSwwLjk2NDM2LDIuNzIwMjEsMS42NDg0NCwzLjk4Mzg5bC0xLjM3ODQyLDEuNTYyNWMtMS4wNDU5LDEuMTg0NTctMC45ODk3NSwyLjk4ODI4LDAuMTI3OTMsNC4xMDU5NiYjMTA7JiM5OyYjOTtsNC4wNjAwNiw0LjA2MDA2YzEuMTE3MTksMS4xMTgxNiwyLjkyMTg4LDEuMTc1MjksNC4xMDY0NSwwLjEyODQybDEuNTYyNS0xLjM3ODQyJiMxMDsmIzk7JiM5O2MxLjI2MzY3LDAuNjg0MDgsMi41OTg2MywxLjIzNjMzLDMuOTgzODksMS42NDg0NGwwLjEyOTg4LDIuMDgxMDVDMjYuMjMzNCw1NS43NjQxNiwyNy41NDgzNCw1NywyOS4xMjg5MSw1N2g1Ljc0MjE5JiMxMDsmIzk7JiM5O2MxLjU4MDU3LDAsMi44OTU1MS0xLjIzNTg0LDIuOTk0MTQtMi44MTI5OWwwLjEyOTg4LTIuMDgxMDVjMS4zODUyNS0wLjQxMjExLDIuNzIwMjEtMC45NjQzNiwzLjk4Mzg5LTEuNjQ4NDRsMS41NjIwMSwxLjM3NzkzJiMxMDsmIzk7JiM5O2MxLjE4NTA2LDEuMDQ1OSwyLjk4ODc3LDAuOTkwNzIsNC4xMDY0NS0wLjEyNzkzbDQuMDYwNTUtNC4wNjAwNmMxLjExNzY4LTEuMTE3NjgsMS4xNzM4My0yLjkyMTM5LDAuMTI4NDItNC4xMDU5NiYjMTA7JiM5OyYjOTtsLTEuMzc4OTEtMS41NjI1YzAuNjg0MDgtMS4yNjM2NywxLjIzNjMzLTIuNTk4NjMsMS42NDg0NC0zLjk4Mzg5bDIuMDgxMDUtMC4xMjk4OEM1NS43NjQxNiwzNy43NjY2LDU3LDM2LjQ1MTY2LDU3LDM0Ljg3MTA5JiMxMDsmIzk7JiM5O3YtNS43NDIxOUM1NywyNy41NDgzNCw1NS43NjQxNiwyNi4yMzM0LDU0LjE4NzAxLDI2LjEzNDc3eiBNNTUsMzQuODcxMDljMCwwLjUyNjg2LTAuNDEyMTEsMC45NjUzMy0wLjkzNzk5LDAuOTk4MDUmIzEwOyYjOTsmIzk7bC0yLjc5MDUzLDAuMTc0MzJjLTAuNDMxMTUsMC4wMjY4Ni0wLjc5NjM5LDAuMzI4MTItMC45MDUyNywwLjc0NjA5Yy0wLjQ0MTQxLDEuNjk1MzEtMS4xMTEzMywzLjMxMzk2LTEuOTkxMjEsNC44MTEwNCYjMTA7JiM5OyYjOTtjLTAuMjE4NzUsMC4zNzMwNS0wLjE3MzgzLDAuODQ0MjQsMC4xMTIzLDEuMTY4NDZsMS44NDk2MSwyLjA5NTdjMC4zNDgxNCwwLjM5NTAyLDAuMzI5NTksMC45OTYwOS0wLjA0Mjk3LDEuMzY4NjUmIzEwOyYjOTsmIzk7bC00LjA2MTA0LDQuMDYwMDZjLTAuMzcyMDcsMC4zNzI1Ni0wLjk3MzYzLDAuMzkxMTEtMS4zNjgxNiwwLjA0MjQ4bC0yLjA5NTctMS44NDg2MyYjMTA7JiM5OyYjOTtjLTAuMzI0MjItMC4yODU2NC0wLjc5NTktMC4zMzA1Ny0xLjE2ODQ2LTAuMTEyM2MtMS40OTcwNywwLjg3OTg4LTMuMTE1NzIsMS41NDk4LTQuODExMDQsMS45OTEyMSYjMTA7JiM5OyYjOTtjLTAuNDE3OTcsMC4xMDg4OS0wLjcxOTI0LDAuNDc0MTItMC43NDYwOSwwLjkwNTI3bC0wLjE3NDMyLDIuNzkwNTNDMzUuODM2NDMsNTQuNTg3ODksMzUuMzk3OTUsNTUsMzQuODcxMDksNTVoLTUuNzQyMTkmIzEwOyYjOTsmIzk7Yy0wLjUyNjg2LDAtMC45NjUzMy0wLjQxMjExLTAuOTk4MDUtMC45Mzc5OWwtMC4xNzQzMi0yLjc5MDUzYy0wLjAyNjg2LTAuNDMxMTUtMC4zMjgxMi0wLjc5NjM5LTAuNzQ2MDktMC45MDUyNyYjMTA7JiM5OyYjOTtjLTEuNjk1MzEtMC40NDE0MS0zLjMxMzk2LTEuMTExMzMtNC44MTEwNC0xLjk5MTIxYy0wLjM0NjM3LTAuMjAzNjEtMC44MzM4Ni0wLjE4MjI1LTEuMTY4NDYsMC4xMTIzbC0yLjA5NjE5LDEuODQ5MTImIzEwOyYjOTsmIzk7Yy0wLjM5NDA0LDAuMzQ5NjEtMC45OTUxMiwwLjMzMDA4LTEuMzY4MTYtMC4wNDI5N2wtNC4wNjA1NS00LjA2MDA2Yy0wLjM3MjU2LTAuMzcyNTYtMC4zOTExMS0wLjk3MzYzLTAuMDQyNDgtMS4zNjg2NSYjMTA7JiM5OyYjOTtsMS44NDkxMi0yLjA5NTdjMC4yODYxMy0wLjMyNDIyLDAuMzMxMDUtMC43OTU0MSwwLjExMjMtMS4xNjg0NmMtMC44Nzk4OC0xLjQ5NzA3LTEuNTQ5OC0zLjExNTcyLTEuOTkxMjEtNC44MTEwNCYjMTA7JiM5OyYjOTtjLTAuMTA4ODktMC40MTc5Ny0wLjQ3NDEyLTAuNzE5MjQtMC45MDUyNy0wLjc0NjA5bC0yLjc5MDUzLTAuMTc0MzJDOS40MTIxMSwzNS44MzY0Myw5LDM1LjM5Nzk1LDksMzQuODcxMDl2LTUuNzQyMTkmIzEwOyYjOTsmIzk7YzAtMC41MjY4NiwwLjQxMjExLTAuOTY1MzMsMC45Mzc5OS0wLjk5ODA1bDIuNzkwNTMtMC4xNzQzMmMwLjQzMTE1LTAuMDI2ODYsMC43OTYzOS0wLjMyODEyLDAuOTA1MjctMC43NDYwOSYjMTA7JiM5OyYjOTtjMC40NDE0MS0xLjY5NTMxLDEuMTExMzMtMy4zMTM5NiwxLjk5MTIxLTQuODExMDRjMC4yMTg3NS0wLjM3MzA1LDAuMTczODMtMC44NDQyNC0wLjExMjMtMS4xNjg0NmwtMS44NDk2MS0yLjA5NTcmIzEwOyYjOTsmIzk7Yy0wLjM0ODE0LTAuMzk1MDItMC4zMjk1OS0wLjk5NjA5LDAuMDQyOTctMS4zNjg2NWw0LjA2MDU1LTQuMDYwNTVjMC4zNzMwNS0wLjM3MzA1LDAuOTczNjMtMC4zOTE2LDEuMzY4NjUtMC4wNDI0OCYjMTA7JiM5OyYjOTtsMi4wOTU3LDEuODQ5MTJjMC4zMjU2OCwwLjI4NjEzLDAuNzk1OSwwLjMzMDA4LDEuMTY4NDYsMC4xMTIzYzEuNDk3MDctMC44Nzk4OCwzLjExNTcyLTEuNTQ5OCw0LjgxMTA0LTEuOTkxMjEmIzEwOyYjOTsmIzk7YzAuNDE3OTctMC4xMDg4OSwwLjcxOTI0LTAuNDc0MTIsMC43NDYwOS0wLjkwNTI3bDAuMTc0MzItMi43OTA1M0MyOC4xNjM1Nyw5LjQxMjExLDI4LjYwMjA1LDksMjkuMTI4OTEsOWg1Ljc0MjE5JiMxMDsmIzk7JiM5O2MwLjUyNjg2LDAsMC45NjUzMywwLjQxMjExLDAuOTk4MDUsMC45Mzc5OWwwLjE3NDMyLDIuNzkwNTNjMC4wMjY4NiwwLjQzMTE1LDAuMzI4MTIsMC43OTYzOSwwLjc0NjA5LDAuOTA1MjcmIzEwOyYjOTsmIzk7YzEuNjk1MzEsMC40NDE0MSwzLjMxMzk2LDEuMTExMzMsNC44MTEwNCwxLjk5MTIxYzAuMzcyNTYsMC4yMTc3NywwLjg0NDI0LDAuMTczODMsMS4xNjg0Ni0wLjExMjNsMi4wOTU3LTEuODQ5NjEmIzEwOyYjOTsmIzk7YzAuMzk1MDItMC4zNDY2OCwwLjk5NzA3LTAuMzI5MSwxLjM2ODY1LDAuMDQyOTdsNC4wNjA1NSw0LjA2MDU1YzAuMzcyNTYsMC4zNzI1NiwwLjM5MTExLDAuOTczNjMsMC4wNDI0OCwxLjM2ODY1JiMxMDsmIzk7JiM5O2wtMS44NDkxMiwyLjA5NTdjLTAuMjg2MTMsMC4zMjQyMi0wLjMzMTA1LDAuNzk1NDEtMC4xMTIzLDEuMTY4NDZjMC44Nzk4OCwxLjQ5NzA3LDEuNTQ5OCwzLjExNTcyLDEuOTkxMjEsNC44MTEwNCYjMTA7JiM5OyYjOTtjMC4xMDg4OSwwLjQxNzk3LDAuNDc0MTIsMC43MTkyNCwwLjkwNTI3LDAuNzQ2MDlsMi43OTA1MywwLjE3NDMyQzU0LjU4Nzg5LDI4LjE2MzU3LDU1LDI4LjYwMjA1LDU1LDI5LjEyODkxVjM0Ljg3MTA5eiIvPiYjeGE7CTxwYXRoIGQ9Ik00NS4yNTkyOCwyMi45OTAyM2MtMC40NzQ2MSwwLjI4MTI1LTAuNjI5ODgsMC44OTUwMi0wLjM0OTEyLDEuMzcwNjFDNDYuMjc3MzQsMjYuNjYyMTEsNDcsMjkuMzAzNzEsNDcsMzImIzEwOyYjOTsmIzk7YzAsOC4yNzEtNi43MjksMTUtMTUsMTVzLTE1LTYuNzI5LTE1LTE1czYuNzI5LTE1LDE1LTE1YzIuNjk2MjksMCw1LjMzNzg5LDAuNzIyNjYsNy42MzkxNiwyLjA4OTg0JiMxMDsmIzk7JiM5O2MwLjQ3NDYxLDAuMjgxNzQsMS4wODgzOCwwLjEyNTQ5LDEuMzcwNjEtMC4zNDkxMmMwLjI4MjcxLTAuNDc1NTksMC4xMjU0OS0xLjA4OTM2LTAuMzQ5MTItMS4zNzA2MSYjMTA7JiM5OyYjOTtDMzguMDUwMjksMTUuODE5ODIsMzUuMDU1NjYsMTUsMzIsMTVjLTkuMzc0MDIsMC0xNyw3LjYyNTk4LTE3LDE3czcuNjI1OTgsMTcsMTcsMTdzMTctNy42MjU5OCwxNy0xNyYjMTA7JiM5OyYjOTtjMC0zLjA1NTY2LTAuODE5ODItNi4wNTAyOS0yLjM3MDEyLTguNjYwNjRDNDYuMzQ3NjYsMjIuODY0NzUsNDUuNzMzODksMjIuNzA4NSw0NS4yNTkyOCwyMi45OTAyM3oiLz4mI3hhOwk8Y2lyY2xlIHI9IjEiIGN5PSIxMiIgY3g9IjMyIi8+JiN4YTsJPGNpcmNsZSByPSIxIiBjeT0iMTcuODU3ODUiIGN4PSI0Ni4xNDIxNSIvPiYjeGE7CTxjaXJjbGUgcj0iMSIgY3k9IjMyIiBjeD0iNTIiLz4mI3hhOwk8cGF0aCBkPSJNNDYuMTQyMTUsNDUuMTQyMTVjLTAuNTUyMzEtMC4wMDAwNi0xLDAuNDQ3NjktMSwwLjk5OTk0YzAsMC41NTIzMSwwLjQ0NzY5LDEsMSwxLjAwMDA2YzAuNTUyMjUsMCwxLTAuNDQ3NzUsMS0xJiMxMDsmIzk7JiM5O0M0Ny4xNDIxNSw0NS41ODk4NCw0Ni42OTQ0LDQ1LjE0MjE1LDQ2LjE0MjE1LDQ1LjE0MjE1eiIvPiYjeGE7CTxjaXJjbGUgcj0iMSIgY3k9IjUyIiBjeD0iMzIiLz4mI3hhOwk8cGF0aCBkPSJNMTcuODU3ODUsNDUuMTQyMTVjLTAuNTUyMjUtMC4wMDAwNi0xLDAuNDQ3NjktMSwwLjk5OTk0YzAsMC41NTIzMSwwLjQ0Nzc1LDEsMSwxLjAwMDA2YzAuNTUyMzEsMCwxLTAuNDQ3NzUsMS0xJiMxMDsmIzk7JiM5O0MxOC44NTc4NSw0NS41ODk4NCwxOC40MTAxNiw0NS4xNDIxNSwxNy44NTc4NSw0NS4xNDIxNXoiLz4mI3hhOwk8Y2lyY2xlIHI9IjEiIGN5PSIzMiIgY3g9IjEyIi8+JiN4YTsJPGNpcmNsZSByPSIxIiBjeT0iMTcuODU3ODUiIGN4PSIxNy44NTc4NSIvPiYjeGE7CTxjaXJjbGUgcj0iMSIgY3k9IjIwLjY4NjI4IiBjeD0iNDMuMzEzNzIiLz4mI3hhOzwvZz4mI3hhOzwvc3ZnPg==;" vertex="1" parent="Uovh46UTTe6WOonXCwlF-111">
          <mxGeometry x="110" y="135.08999999999997" width="64" height="64" as="geometry" />
        </mxCell>
        <mxCell id="Uovh46UTTe6WOonXCwlF-112" value="" style="group" vertex="1" connectable="0" parent="1">
          <mxGeometry x="440" y="129.2" width="174" height="203" as="geometry" />
        </mxCell>
        <mxCell id="Uovh46UTTe6WOonXCwlF-80" value="" style="shape=image;verticalLabelPosition=bottom;labelBackgroundColor=default;verticalAlign=top;aspect=fixed;imageAspect=0;image=data:image/png,iVBORw0KGgoAAAANSUhEUgAAAgAAAAIACAYAAAD0eNT6AAAACXBIWXMAAAsSAAALEgHS3X78AAAgAElEQVR4Ae3d4XUUNx8vYOmefDe3AkgFdirAqQCnAngriKkgTgUxFcRUELuCmAqCKwhUcHEFukdEzuuXxHh2R7MrjZ7nnP1mZjXaZf6/1WikmFIK1BVjPAkhHIcQjkIIz3UvwFbehRDehxCuU0qXurAuAaCSGOOTEMJpCOFVCOHpKk4KoB0fQwgXIYTzlNInn8t8AkAFMcZc+M9CCAfdnwxA227z9TaldO5zmkcAmKH86s+J9EW3JwHQp6s84mo0YHsCwJZK8b8OIRx2eQIA/bvJ862EgO38nx4bvW+KP0AT8jX4ulyT2ZARgC3EGN8r/gDNuEkpHfk4NmMEYEMxxnPFH6Aph+XazAaMAGwgxpif7f+9mwYDjOX7lNK1z3waIwCbOeupsQCDcY3egBGAiWKM+f7SH100FmBc36WU3vv8H2cEYLrTXhoKMDDX6omMAEwUY/xkpT+A5t2mlDwWOIERgAnK8L/iD9C+g3LN5hECwDS+TAD9cM2e4JvmW9iGZzNbcVV2sPJ4CsBXlMetz2ZupT73mj0EIwDL+1g2rFD8AR5RrpUn5drJggSAaeYMJ13bqAJgunLN9CjfwgSAaeZ8ET/ssqEAKyEALEwAAIABCQAAMCABAAAGJAAAwIAEAAAYkAAAAAMSAABgQAIAAAxIAACAAQkAADAgAQAABmQ74IHEGPMWmcfl9axscnTwQA/clrW47155U6NV7mugX4ARCQArV4pb3lrzVQjhcIOzPSj7cf+9J3eM8SaEcBFCuOy96OkXYHRuAaxULnAxxlyU/gwh/LJhkXvIYTnWn/nYpYh2Rb8A/EUAWJkvCtzLBc/uZU8FT78A/C8BYEVijKflvvSSBe5L+b3el/dukn4B+CcBYAVijE9ijJdlGPqhyWtLyu/5S25DbksrPapfAB4mAHQuxphnrF+HEF40cCa5DdelTXulXwC+TgDo2L0iV2MiWy2H+y52+gXgcQJAp+4VuX0MbT/mYF/FTr8ATCMAdKjcT261yN25K3Y7u/etXwCmEwD61HqRu3NQ2ror+gVgIgGgMzHG88bubT/msLR5UfoFYDMCQEdijHmt+h87bPqPpe2L0C8AmxMA+nKh7Ts/9tJ6bjvQMQGgEzHGvGnN045P4Wk5h6r0C8B27AbYj7PKLc3b2l7e29b2vqPyOqk8qe5sgV+8+gVgCwJAByr/ys0FLk8+O08pfXrgbz7PUC+Pqp2WV42C9/nXbkqpSrHTLwDbcwugD7U2lHkXQniWUjr7SpH7W/6b/Lf535R/W0PNzXH0C8CWBIDGlS1lazze9jaldDylwH2pFLw8W/1thXYc1tgmV78AzCMAtO+kQgtzkZs90awco0axq3FO+gVgBgGgfXOLws0Cw+43M4/RQgBYa798VYzxpGxPnCa88t8t1qayXfN5jPHDxPZ4tf1a9PtCfQJA+57PbOHpNsPbDynHmls4555TjWOstV/+VSm2+emG3zbYIjn/3W/lwl5174JSKD6UBZx6foyT/1rs+8IyBICGVdg17l1Kqfqa8+WYsya/zTk3/bLxMe82SZpa+L/0oubeBeXpjd862beBzVX9vrAcAaBtcyeFLbnW/Nxjzzk3/bKZ0woTJvMkxdlrLpQwYg+E9avyfWFZAkDbZv0aTCldLnV2FY4959z0y0Sl4P5U6XA/VRjaPfPLfxg1vi8sSABYr1rPp3/N3Elv+zBav9SelDX3eCaJjcXn3TABoG2tp+dqk+g2pF+mq31LYe7xTPgbi7UtGiYArFdLRaglo/VLMxdgCx1BWwSAts0pVmu+96ZfpvvQSkNSSs20BRAA1mwXha7HYjpav9QuunOP97FSO+iD0NcwAWC9aqyT/6Ayu3fR91jIaP1S+4mHucdb7AkMmuTzbpgA0LYv96PfyMLLch7P/Pdzzk2/TFRWKPy50uF+rrB64lnZepn1q/F9YUECQNvm/udZcovZuceeMzSoXzZQti6e+2jiTTnO3Lbkz272Bkw0r8r3hWUJAA2rsFzt8xjj3F+k/1COOWvd+pTS1r909ctWctuutvy3VxVGNv5WFkv6wUjAalX9vrAcAaB9cxeuOa+5GlelpVxrLMajXzaQf3mnlE5K4Z0aBPLf/ZD/Xe2h3BIC8mOBb0wMXI3Fvi8s4xv92rzLmb8qD0thqjXsel5hkluNiUH6ZQul8DYxMeveDopL3pIBHmAEoH01LtYvY4wXcw9SjvGyQntqBYC51tgvAJMIAI0ri6fUWFs+F7vrbYa9y17y15WK3E2NBWH0C8A8AkAfam2fmofMP+RtOqcUvFLgzsrM9FmT2+6puRWsfgHYkjkAHUgpXZSCU2MjlYOyPexp+fV6/S/Pnh+V10nlrVs/5nOpdTD9ArA9AaAfudD9WrG1uYC9KK9dWeK5YP0CsAW3ADpRfiH2/LjUIr9y9QvAdgSAvvS8gtqSbdcvABsSADpSVsB702HT31RYve9B+gVgcwJAZ1JKp5Uef9uVm9LmRekXgM0IAH067mQd9dsdrwmuXwAmEgA6VJZQbb3YfS5yu1wTXL8ATCcAdKrsGtdqsbsrckvtbPcg/QIwjQDQsXvFrqV73zf7LnL6BeBxAkDn7hW7bfd6r+mqlSKnXwC+TgBYgXt7vb/e09B3fs/Xre0Drl8AHiYArEhK6bysVf92h2eV3+uovHeT9AvAPwkAK5O3lE0p5dXlvl244OVjf5vfq4dtbPULwP8SAFbqi4L3utKEuJtyrG4LnH4B+IvdAFeuFKM8DH0eY3xWJsYd3Xs9tK3tbdkO9+51vabCpl+A0QkAAymFys5zX9AvwIjcAgCAAQkAADAgAQAABiQAAMCABAAAGJAAAAADEgAAYEACAAAMSAAAgAEJAAAwIAEAAAYkACzvydpPEGABz3TqsgSA5Z3EGIUAgInKNfNYfy1LAFje0xDCZYzRlxngETHGvB33Zbl2siDbAU8zd7/35yGE32OMu2ovwMjmXrOHYARgmvc9NBKAz1yzJ4gppeYb2YIY46cQwsHo/QDQuNuUknlXExgBmO6yl4YCDMy1eiIjABOViSl/dNFYgHF9l1JyC2ACIwATlS/Uuy4aCzCmd4r/dALAZs56aizAYFyjNyAAbCCldB1CeNNNgwHG8aZco5nIHIAtxBjzENNhdw0HWKeblNKRz3YzRgC2k1f1u+mx4QArc2PZ4O0IAFtIKX0SAgD27nPxL9dkNiQAbOleCLjq8gQA+nal+M8jAMyQv3gppZMQwuu8+lS3JwLQj3ytfZ2vvYr/PCYBVlK2rzwNIbyyixVAdR9DCBchhHOFvw4BYAExxpNye+Co7AQIwObelY19rlNKlvitTABoRIwxL2Dx05at+TmlZAEMYCdcr9bBHAAAGJAAAAADEgAAYEACAAAMSAAAgAEJAAAwIAEAAAYkAADAgAQAABiQAAAAAxIAAGBAAgAADEgAAIABCQAAMCABAAAGJAAAwIAEAAAYkAAAAAMSAABgQAIAAAxIAACAAQkAADAgAQAABiQAAMCABAAAGJAAAAADEgAAYEACAAAMSAAAgAEJAAAwIAEAAAYkAADAgAQAABiQAAAAA4opJZ97ZTHGkxDCcQjhKITwfFUnB7A770II70MI1ymlS/1elwBQSYzxSQjhNITwKoTwdBUnBdCOjyGEixDCeUrpk89lPgGgghhjLvxnIYSD7k8GoG23+XqbUjr3Oc0jAMxQfvXnRPqi25MA6NNVHnE1GrA9AWBLpfhfhxAOuzwBgP7d5PlWQsB2PAWwBcUfoAn5GnxdrslsyAjAFmKM7xV/gGbcpJSOfBybMQKwoRjjueIP0JTDcm1mA0YANhBjzM/2/95NgwHG8n1K6dpnPo0RgM2c9dRYgMG4Rm/ACMBEMcZ8f+mPLhoLMK7vUkrvff6PMwIw3WkvDQUYmGv1REYAJooxfrLSH0DzblNKHgucwAjABGX4X/EHaN9BuWbzCAFgGl8mgH64Zk/wTfMtbMOzma24KjtYeTwF4CvK49ZnM7dSn3vNHoIRgOV9LBtWKP4AjyjXypNy7WRBAsA0c4aTrm1UATBduWZ6lG9hAsA0c76IH3bZUICVEAAWJgAAwIAEAAAYkAAAAAMSAABgQAIAAAxIAACAAQkAADAgAQAABiQAAMCABAAAGJAAAAADsh3wQGKMeYvM4/J6VjY5OnigB27LWtx3r7yp0Sr3NdAvwIgEgJUrxS1vrfkqhHC4wdkelP24/96TO8Z4E0K4CCFc9l709AswOrcAVioXuBhjLkp/hhB+2bDIPeSwHOvPfOxSRLuiXwD+IgCszBcF7uWCZ/eyp4KnXwD+lwCwIjHG03JfeskC96X8Xu/LezdJvwD8kwCwAjHGJzHGyzIM/dDktSXl9/wltyG3pZUe1S8ADxMAOhdjzDPWr0MILxo4k9yG69KmvdIvAF8nAHTsXpGrMZGtlsN9Fzv9AvA4AaBT94rcPoa2H3Owr2KnXwCmEQA6VO4nt1rk7twVu53d+9YvANMJAH1qvcjdOSht3RX9AjCRANCZGON5Y/e2H3NY2rwo/QKwGQGgIzHGvFb9jx02/cfS9kXoF4DNCQB9udD2nR97aT23HeiYANCJGGPetOZpx6fwtJxDVfoFYDt2A+zHWeWW5m1tL+9ta3vfUXmdVJ5Ud7bAL179ArAFAaADlX/l5gKXJ5+dp5Q+PfA3n2eol0fVTsurRsH7/Gs3pVSl2OkXgO25BdCHWhvKvAshPEspnX2lyP0t/03+2/xvyr+toebmOPoFYEsCQOPKlrI1Hm97m1I6nlLgvlQKXp6t/rZCOw5rbJOrXwDmEQDad1KhhbnIzZ5oVo5Ro9jVOCf9AjCDANC+uUXhZoFh95uZx2ghAKy1X74qxnhStidOE1757xZrU9mu+TzG+GFie7zafi36faE+AaB9z2e28HSb4e2HlGPNLZxzz6nGMdbaL/+qFNv8dMNvG2yRnP/ut3Jhr7p3QSkUH8oCTj0/xsl/LfZ9YRkCQMMq7Br3LqVUfc35csxZk9/mnJt+2fiYd5skTS38X3pRc++C8vTGb53s28Dmqn5fWI4A0La5k8KWXGt+7rHnnJt+2cxphQmTeZLi7DUXShixB8L6Vfm+sCwBoG2zfg2mlC6XOrsKx55zbvplolJwf6p0uJ8qDO2e+eU/jBrfFxYkAKxXrefTv2bupLd9GK1fak/Kmns8k8TG4vNumADQttbTc7VJdBvSL9PVvqUw93gm/I3F2hYNEwDWq6Ui1JLR+qWZC7CFjqAtAkDb5hSrNd970y/TfWilISmlZtoCCABrtotC12MxHa1fahfducf7WKkd9EHoa5gAsF411sl/UJndu+h7LGS0fqn9xMPc4y32BAZN8nk3TABo25f70W9k4WU5j2f++znnpl8mKisU/lzpcD9XWD3xrGy9zPrV+L6wIAGgbXP/8yy5xezcY88ZGtQvGyhbF899NPGmHGduW/JnN3sDJppX5fvCsgSAhlVYrvZ5jHHuL9J/KMectW59SmnrX7r6ZSu5bVdb/turCiMbfyuLJf1gJGC1qn5fWI4A0L65C9ec11yNq9JSrjUW49EvG8i/vFNKJ6XwTg0C+e9+yP+u9lBuCQH5scA3JgauxmLfF5bxjX5t3uXMX5WHpTDVGnY9rzDJrcbEIP2yhVJ4m5iYdW8HxSVvyQAPMALQvhoX65cxxou5BynHeFmhPbUCwFxr7BeASQSAxpXFU2qsLZ+L3fU2w95lL/nrSkXupsaCMPoFYB4BoA+1tk/NQ+Yf8jadUwpeKXBnZWb6rMlt99TcCla/AGzJHIAOpJQuSsGpsZHKQdke9rT8er3+l2fPj8rrpPLWrR/zudQ6mH4B2J4A0I9c6H6t2NpcwF6U164s8VywfgHYglsAnSi/EHt+XGqRX7n6BWA7AkBfel5Bbcm26xeADQkAHSkr4L3psOlvKqze9yD9ArA5AaAzKaXTSo+/7cpNafOi9AvAZgSAPh13so767Y7XBNcvABMJAB0qS6i2Xuw+F7ldrgmuXwCmEwA6VXaNa7XY3RW5pXa2e5B+AZhGAOjYvWLX0r3vm30XOf0C8DgBoHP3it22e73XdNVKkdMvAF8nAKzAvb3eX+9p6Du/5+vW9gHXLwAPEwBWJKV0Xtaqf7vDs8rvdVTeu0n6BeCfBICVyVvKppTy6nLfLlzw8rG/ze/Vwza2+gXgfwkAK/VFwXtdaULcTTlWtwVOvwD8xW6AK1eKUR6GPo8xPisT447uvR7a1va2bId797peU2HTL8DoBICBlEJl57kv6BdgRG4BAMCABAAAGJAAAAADEgAAYEACAAAMSAAAgAEJAAAwIAEAAAYkAADAgAQAABiQAAAAAxIAlvdk7ScIsIBnOnVZAsDyTmKMQgDAROWaeay/liUALO9pCOEyxujLDPCIGGPejvuyXDtZkO2Ap5m73/vzEMLvMcZdtRdgZHOv2UMwAjDN+x4aCcBnrtkTxJRS841sQYzxUwjhYPR+AGjcbUrJvKsJjABMd9lLQwEG5lo9kRGAicrElD+6aCzAuL5LKbkFMIERgInKF+pdF40FGNM7xX86AWAzZz01FmAwrtEbEAA2kFK6DiG86abBAON4U67RTGQOwBZijHmI6bC7hgOs001K6chnuxkjANvJq/rd9NhwgJW5sWzwdgSALaSUPgkBAHv3ufiXazIbEgC2dC8EXHV5AgB9u1L85xEAZshfvJTSSQjhdV59qtsTAehHvta+ztdexX8ekwArKdtXnoYQXtnFCqC6jyGEixDCucJfhwCwgBjjSbk9cFR2AgRgc+/Kxj7XKSVL/FYmADQixpgXsPhpy9b8nFKyAAawE65X62AOAAAMSAAAgAEJAAAwIAEAAAYkAADAgAQAABiQAAAAAxIAAGBAAgAADEgAAIABCQAAMCABAAAGJAAAwIAEAAAYkAAAAAMSAABgQAIAAAxIAACAAQkAADAgAQAABiQAAMCABAAAGJAAAAADEgAAYEACAAAMSAAAgAEJAAAwIAEAAAYkAADAgAQAABiQAAAAAxIAAGBAAgAADEgAAIABxZSSz72yGONJCOE4hHAUQni+qpMD2J13IYT3IYTrlNKlfq9LAKgkxvgkhHAaQngVQni6ipMCaMfHEMJFCOE8pfTJ5zKfAFBBjDEX/rMQwkH3JwPQttt8vU0pnfuc5hEAZii/+nMifdHtSQD06SqPuBoN2J4AsKVS/K9DCIddngBA/27yfCshYDueAtiC4g/QhHwNvi7XZDZkBGALMcb3ij9AM25SSkc+js0YAdhQjPFc8QdoymG5NrMBIwAbiDHmZ/t/76bBAGP5PqV07TOfxgjAZs56aizAYFyjN2AEYKIYY76/9EcXjQUY13cppfc+/8cZAZjutJeGAgzMtXoiIwATxRg/WekPoHm3KSWPBU5gBGCCMvyv+AO076Bcs3mEADCNLxNAP1yzJ/im+Ra24dnMVlyVHaw8ngLwFeVx67OZW6nPvWYPwQjA8j6WDSsUf4BHlGvlSbl2siABYJo5w0nXNqoAmK5cMz3KtzABYJo5X8QPu2wowEoIAAsTAABgQAIAAAxIAACAAQkAADAgAQAABiQAAMCABAAAGJAAAAADEgAAYEACAAAMSAAAgAHZDnggMca8ReZxeT0rmxwdPNADt2Ut7rtX3tRolfsa6BdgRALAypXilrfWfBVCONzgbA/Kftx/78kdY7wJIVyEEC57L3r6BRidWwArlQtcjDEXpT9DCL9sWOQecliO9Wc+dimiXdEvAH8RAFbmiwL3csGze9lTwdMvAP9LAFiRGONpuS+9ZIH7Un6v9+W9m6RfAP5JAFiBGOOTGONlGYZ+aPLakvJ7/pLbkNvSSo/qF4CHCQCdizHmGevXIYQXDZxJbsN1adNe6ReArxMAOnavyNWYyFbL4b6LnX4BeJwA0Kl7RW4fQ9uPOdhXsdMvANMIAB0q95NbLXJ37ordzu596xeA6QSAPrVe5O4clLbuin4BmEgA6EyM8byxe9uPOSxtXpR+AdiMANCRGGNeq/7HDpv+Y2n7IvQLwOYEgL5caPvOj720ntsOdEwA6ESMMW9a87TjU3hazqEq/QKwHbsB9uOsckvztraX97a1ve+ovE4qT6o7W+AXr34B2IIA0IHKv3JzgcuTz85TSp8e+JvPM9TLo2qn5VWj4H3+tZtSqlLs9AvA9twC6EOtDWXehRCepZTOvlLk/pb/Jv9t/jfl39ZQc3Mc/QKwJQGgcWVL2RqPt71NKR1PKXBfKgUvz1Z/W6EdhzW2ydUvAPMIAO07qdDCXORmTzQrx6hR7Gqck34BmEEAaN/conCzwLD7zcxjtBAA1tovXxVjPCnbE6cJr/x3i7WpbNd8HmP8MLE9Xm2/Fv2+UJ8A0L7nM1t4us3w9kPKseYWzrnnVOMYa+2Xf1WKbX664bcNtkjOf/dbubBX3bugFIoPZQGnnh/j5L8W+76wDAGgYRV2jXuXUqq+5nw55qzJb3POTb9sfMy7TZKmFv4vvai5d0F5euO3TvZtYHNVvy8sRwBo29xJYUuuNT/32HPOTb9s5rTChMk8SXH2mgsljNgDYf2qfF9YlgDQtlm/BlNKl0udXYVjzzk3/TJRKbg/VTrcTxWGds/88h9Gje8LCxIA1qvW8+lfM3fS2z6M1i+1J2XNPZ5JYmPxeTdMAGhb6+m52iS6DemX6WrfUph7PBP+xmJti4YJAOvVUhFqyWj90swF2EJH0BYBoG1zitWa773pl+k+tNKQlFIzbQEEgDXbRaHrsZiO1i+1i+7c432s1A76IPQ1TABYrxrr5D+ozO5d9D0WMlq/1H7iYe7xFnsCgyb5vBsmALTty/3oN7LwspzHM//9nHPTLxOVFQp/rnS4nyusnnhWtl5m/Wp8X1iQANC2uf95ltxidu6x5wwN6pcNlK2L5z6aeFOOM7ct+bObvQETzavyfWFZAkDDKixX+zzGOPcX6T+UY85atz6ltPUvXf2yldy2qy3/7VWFkY2/lcWSfjASsFpVvy8sRwBo39yFa85rrsZVaSnXGovx6JcN5F/eKaWTUninBoH8dz/kf1d7KLeEgPxY4BsTA1djse8Ly/hGvzbvcuavysNSmGoNu55XmORWY2KQftlCKbxNTMy6t4PikrdkgAcYAWhfjYv1yxjjxdyDlGO8rNCeWgFgrjX2C8AkAkDjyuIpNdaWz8Xuepth77KX/HWlIndTY0EY/QIwjwDQh1rbp+Yh8w95m84pBa8UuLMyM33W5LZ7am4Fq18AtmQOQAdSShel4NTYSOWgbA97Wn69Xv/Ls+dH5XVSeevWj/lcah1MvwBsTwDoRy50v1ZsbS5gL8prV5Z4Lli/AGzBLYBOlF+IPT8utcivXP0CsB0BoC89r6C2ZNv1C8CGBICOlBXw3nTY9DcVVu97kH4B2JwA0JmU0mmlx9925aa0eVH6BWAzAkCfjjtZR/12x2uC6xeAiQSADpUlVFsvdp+L3C7XBNcvANMJAJ0qu8a1WuzuitxSO9s9SL8ATCMAdOxesWvp3vfNvoucfgF4nADQuXvFbtu93mu6aqXI6ReArxMAVuDeXu+v9zT0nd/zdWv7gOsXgIcJACuSUjova9W/3eFZ5fc6Ku/dJP0C8E8CwMrkLWVTSnl1uW8XLnj52N/m9+phG1v9AvC/BICV+qLgva40Ie6mHKvbAqdfAP5iN8CVK8UoD0OfxxiflYlxR/deD21re1u2w717Xa+psOkXYHQCwEBKobLz3Bf0CzAitwAAYEACAAAMSAAAgAEJAAAwIAEAAAYkAADAgAQAABiQAAAAAxIAAGBAAgAADEgAAIABCQDLe7L2EwRYwDOduiwBYHknMUYhAGCics081l/LEgCW9zSEcBlj9GUGeESMMW/HfVmunSzIdsDTzN3v/XkI4fcY467aCzCyudfsIRgBmOZ9D40E4DPX7AliSqn5RrYgxvgphHAwej8ANO42pWTe1QRGAKa77KWhAANzrZ7ICMBEZWLKH100FmBc36WU3AKYwAjAROUL9a6LxgKM6Z3iP50AsJmznhoLMBjX6A0IABtIKV2HEN5002CAcbwp12gmMgdgCzHGPMR02F3DAdbpJqV05LPdjBGA7eRV/W56bDjAytxYNng7AsAWUkqfhACAvftc/Ms1mQ0JAFu6FwKuujwBgL5dKf7zCAAz5C9eSukkhPA6rz7V7YkA9CNfa1/na6/iP49JgJWU7StPQwiv7GIFUN3HEMJFCOFc4a9DAFhAjPGk3B44KjsBArC5d2Vjn+uUkiV+KxMAYMVijHlhlJ+2PMOfU0oWVoGVMgcAAAYkAADAgAQAABiQAAAAAxIAAGBAAgAADEgAAIABCQAAMCABAAAGJAAAwIAEAAAYkAAAAAMSAABgQAIAAAxIAACAAQkAADAgAQAABiQAAMCABAAAGJAAAAADEgAAYEACAKxUjPEohPBsxtk9K8cAViimlHyusAIxxichhJPyOg4hHFQ6q9sQwnUI4TK/UkqffF+gfwIAdC7GmIv9qxDCyx2dydsQwkVK6dp3B/olAECnYoy56J+FEJ7u6Qw+5vdPKV34DkF/BADoTIwxD/Gf77HwfykHgdOU0qXvEvRDAIBOxBjzhL78a/t5oy1+l29FpJQ+NNAW4BGeAoAOxBhPQwjvGy7+obTtfWkr0DgjANCwMrM//+p/0dnndFVGAzwxAI0yAgCNKs/gX3dY/ENp87V1BKBdRgCgQfeKf61n+fclryFwnFJ673sGbTECAI0ps/zXUPxDOYfrck5AQ4wAQEPKL/8/VvqZfGckANphBAAacW/Yf63MCYCGGAGABpRn/N+vZNj/a/KcgGeeDoD9MwIAbbgcoPiHuzkBDbQDhvfN6B0A+xZjzMv6Hi7cjJsywnD3+jdH915Ltucwn3NKyYJBsEduAcAeldEfRnMAAAWMSURBVJ38fl+oBR/LngGXmy7PW25J5Jn7pwvuOfC9HQVhfwQA2JOyyt/7BQrsu7JLX5XiWkLK2QLLEOeAcmQ+AOyHOQCwP7V/XecJdv9JKR3X/GWdj5WPmY9d3qOWp6UPgD0wAgB7UIbY/6z4zvlX/8nSv6bLqMVl5dGAb+0gCLtnBAD246ziu74pv/oXH0rP71FGA95UPGzNvgAmMgIAO1b5138e8r/Yx2cYY3wVQvi10uGMAsCOGQGA3at13/v1vop/+Gs0IL/360qHMxcAdswIAOxYjPFThUV/3qaUXrXw2cUYcxB4OfMwtymlJ5WaBExgBAB2qAybzy3+N439Yj4tbZrjoPQNsCMCAOxWjW1xX7X07HxpS43ibctg2CEBAHakPEL3Yua7vWlxS93SprlPBrwofQTsgAAAu3M8851uG39k7qzCQkFz+wiYSACA3Zlb3C5aXja3tG3uUwkCAOyIAAC7czTznc47+KzmtnFuHwETeQxwCzHGkzLpae79XJjqJqXURXGMMb7fwfbGcOeqjI5d6pHNGAHYQJ6gFGPMX7LfFH92bG8L/myhp7bSv3wt/i1fm00i3YwAMFH5Yl0r/OxJczP/v6KntrIeL8o1mokEgOlODWuyLzW3911aT21ldQ5jjDaXmsgcgAnKr///13xDWatu7v/fMQ+APfu/LT8x0wojANNYoYx96vFC5uLLPrlmTyAATPOsh0YC8Jlr9gQCwDS+TACsigAwzYceGgkAUwkA0wgAAP1wzZ5AAJjGClPsU4+Lm1iQhX1yzZ5AAJigPE7yc/MNZa16fJzOI4Dsy88eAZzGOgAb8Gwze/R9LwvsxBjzjn6/N9AUxtPdmhn7ZARgM8dl4wnYtZ4uai7A7MOV7aQ3YwRgC3YDZA/sBgj/zm6AWxIAYEdijHkI//mMd/s2pdT07OYYY14z488Zh3iXUvIrDnbALQDYnbm75J128FnNbaOdBGFHBADYnbmT+F61vN95adurmYexkyDsiAAAuzO3uB2EEFre6vSstHEOAQB2RACAHSnPJs99iuTHGGNzkwFLm36ceZgrz2/D7ggAsFs1ZipftHQroLTlosKhzOKGHfIUAOxYjPFThaHytymluffbq4gx5uL/cuaxblNKlg+GHTICALtX49fyyxjj3p8KKG2YW/xDpT4BNmAEAHaswrPy9/0npbSX4hljzCMQv1Y6XPNrHMDaGAGAHSuF7m2ld/01xni+63Mo71mr+L9V/GH3jADAHlQeBcjehRBOlp5FXyb8Xc5c0fC+27x3gAAAu2cEAPagFLyaW0zngvyhDMsvohz7Q8Xin50r/rAfRgBgT8qv6bz07dPKLcijAWe1tg8u2/ueVS782cfy69+z/7AHAgDs0cJ75+cCm+/VX276K7vcojgpa/vXDih3vq8VUoDNCQCwZ2VC3dxV9B5zU0Yb3n9lw52je6+lt/N9k1LqYXMjWC0BABow2B76Nyml5pYzhtEIANCAMuT+vsIKga3Ls/6fue8P++cpAGhAuUd/XArkWuVzO1b8oQ1GAKAhZVe9P1b6mXyXUnpo/gGwY0YAoCGlQP6wspGAfC4/KP7QFiMA0KAyEnC9gjkBd8P+ij80xggANKgUzOPy+F6vbhR/aJcAAI26FwKuOvyMrhR/aJsAAA3LM+ZTSnlFvtedzAvIbXyd22y2P7TNHADoRFkr4GKBNflryXsQvLK5D/TBCAB0IhfWlNJxeUrgY0Ot/lhm+R8r/tAPAQA6k1LKm/vk0YD/7DkI5Pf+T25LbpPvEfTFLQDoXNlRMO/V/3JHZ/I234qwkx/0TQCAlYgxPilb+J6UpwdqrSFwW9YkuCxbC5vcBysgAMBKlcWE7r+eTdjbPw/rf7i/dbBH+WCFQgj/H7QZIcHxrgCPAAAAAElFTkSuQmCC;" vertex="1" parent="Uovh46UTTe6WOonXCwlF-112">
          <mxGeometry y="38" width="132" height="132" as="geometry" />
        </mxCell>
        <mxCell id="Uovh46UTTe6WOonXCwlF-95" value="" style="shape=image;verticalLabelPosition=bottom;labelBackgroundColor=default;verticalAlign=top;aspect=fixed;imageAspect=0;image=data:image/svg+xml,PHN2ZyB4bWxuczp4bGluaz0iaHR0cDovL3d3dy53My5vcmcvMTk5OS94bGluayIgeG1sbnM9Imh0dHA6Ly93d3cudzMub3JnLzIwMDAvc3ZnIiB4bWw6c3BhY2U9InByZXNlcnZlIiB2aWV3Qm94PSIwIDAgNjQgNjQiIHk9IjBweCIgeD0iMHB4IiBpZD0iT3V0bGluZSIgdmVyc2lvbj0iMS4xIj4mI3hhOzxnPiYjeGE7CTxwYXRoIGQ9Ik0xNC41LDQyYy0wLjU1MjczLDAtMSwwLjQ0Nzc1LTEsMXY2YzAsMC41NTIyNSwwLjQ0NzI3LDEsMSwxczEtMC40NDc3NSwxLTF2LTJoMnYyYzAsMC41NTIyNSwwLjQ0NzI3LDEsMSwxczEtMC40NDc3NSwxLTEmIzEwOyYjOTsmIzk7di02YzAtMC41NTIyNS0wLjQ0NzI3LTEtMS0xcy0xLDAuNDQ3NzUtMSwxdjJoLTJ2LTJDMTUuNSw0Mi40NDc3NSwxNS4wNTI3Myw0MiwxNC41LDQyeiIvPiYjeGE7CTxwYXRoIGQ9Ik0zOCw0M3Y2YzAsMC41NTIyNSwwLjQ0NzI3LDEsMSwxczEtMC40NDc3NSwxLTF2LTEuNWgwLjc1YzEuNTE2NiwwLDIuNzUtMS4yMzM0LDIuNzUtMi43NVM0Mi4yNjY2LDQyLDQwLjc1LDQySDM5JiMxMDsmIzk7JiM5O0MzOC40NDcyNyw0MiwzOCw0Mi40NDc3NSwzOCw0M3ogTTQwLDQ0aDAuNzVjMC40MTMwOSwwLDAuNzUsMC4zMzY0MywwLjc1LDAuNzVzLTAuMzM2OTEsMC43NS0wLjc1LDAuNzVINDBWNDR6Ii8+JiN4YTsJPHBhdGggZD0iTTIxLDQzYzAsMC41NTIyNSwwLjQ0NzI3LDEsMSwxaDEuNXY1YzAsMC41NTIyNSwwLjQ0NzI3LDEsMSwxczEtMC40NDc3NSwxLTF2LTVIMjdjMC41NTI3MywwLDEtMC40NDc3NSwxLTEmIzEwOyYjOTsmIzk7cy0wLjQ0NzI3LTEtMS0xaC01QzIxLjQ0NzI3LDQyLDIxLDQyLjQ0Nzc1LDIxLDQzeiIvPiYjeGE7CTxwYXRoIGQ9Ik0zMyw1MGMwLjU1MjczLDAsMS0wLjQ0Nzc1LDEtMXYtNWgxLjVjMC41NTI3MywwLDEtMC40NDc3NSwxLTFzLTAuNDQ3MjctMS0xLTFoLTVjLTAuNTUyNzMsMC0xLDAuNDQ3NzUtMSwxczAuNDQ3MjcsMSwxLDEmIzEwOyYjOTsmIzk7SDMydjVDMzIsNDkuNTUyMjUsMzIuNDQ3MjcsNTAsMzMsNTB6Ii8+JiN4YTsJPHBhdGggZD0iTTQ4LjA5OTYxLDQ4SDQ2Yy0wLjU1MjczLDAtMSwwLjQ0Nzc1LTEsMXMwLjQ0NzI3LDEsMSwxaDIuMDk5NjFDNDkuNDIyODUsNTAsNTAuNSw0OC45MjMzNCw1MC41LDQ3LjYwMDEmIzEwOyYjOTsmIzk7YzAtMS4wMjU4OC0wLjY1MjM0LTEuOTM3OTktMS42MjIwNy0yLjI3MDAybC0xLjYwNzQyLTAuNTUyMjVDNDcuMTA4NCw0NC43MjI2Niw0Nyw0NC41NzA4LDQ3LDQ0LjM5OTkmIzEwOyYjOTsmIzk7QzQ3LDQ0LjE3OTIsNDcuMTc5NjksNDQsNDcuNDAwMzksNDRINDkuNWMwLjU1MjczLDAsMS0wLjQ0Nzc1LDEtMXMtMC40NDcyNy0xLTEtMWgtMi4wOTk2MUM0Ni4wNzcxNSw0Miw0NSw0My4wNzY2Niw0NSw0NC4zOTk5JiMxMDsmIzk7JiM5O2MwLDEuMDI1ODgsMC42NTIzNCwxLjkzNzk5LDEuNjIyMDcsMi4yNzAwMmwxLjYwNzQyLDAuNTUyMjVDNDguMzkxNiw0Ny4yNzczNCw0OC41LDQ3LjQyOTIsNDguNSw0Ny42MDAxJiMxMDsmIzk7JiM5O0M0OC41LDQ3LjgyMDgsNDguMzIwMzEsNDgsNDguMDk5NjEsNDh6Ii8+JiN4YTsJPHBhdGggZD0iTTMyLDIyYy00Ljk2Mjg5LDAtOSw0LjAzNzYtOSw5czQuMDM3MTEsOSw5LDlzOS00LjAzNzYsOS05UzM2Ljk2Mjg5LDIyLDMyLDIyeiBNMzIsMzgmIzEwOyYjOTsmIzk7Yy0wLjM0MjY1LDAtMC45NzY4Ny0wLjg2MjM3LTEuNDM5ODItMi41aDIuODc5NjRDMzIuOTc2ODcsMzcuMTM3NjMsMzIuMzQyNjUsMzgsMzIsMzh6IE0zMC4xNTgzOSwzMy41JiMxMDsmIzk7JiM5O0MzMC4wNjA0MiwzMi43NTMxNywzMCwzMS45MjIsMzAsMzFzMC4wNjA0Mi0xLjc1MzE3LDAuMTU4MzktMi41aDMuNjgzMjlDMzMuOTM5NjQsMjkuMjQ2ODMsMzQsMzAuMDc4LDM0LDMxJiMxMDsmIzk7JiM5O3MtMC4wNjAzNiwxLjc1MzE3LTAuMTU4MzMsMi41SDMwLjE1ODM5eiBNMjUsMzFjMC0wLjg4MTU5LDAuMTcwNzItMS43MjIyOSwwLjQ2OTU0LTIuNWgyLjY3NTcyJiMxMDsmIzk7JiM5O0MyOC4wNDg3NywyOS4zMTQ5NCwyOCwzMC4xNTgzOSwyOCwzMXMwLjA0ODc3LDEuNjg1MDYsMC4xNDUyNiwyLjVoLTIuNjc1NzJDMjUuMTcwNzIsMzIuNzIyMjksMjUsMzEuODgxNTksMjUsMzF6IE0zMiwyNCYjMTA7JiM5OyYjOTtjMC4zNDI2NSwwLDAuOTc2ODcsMC44NjIzLDEuNDM5ODIsMi41aC0yLjg3OTY0QzMxLjAyMzEzLDI0Ljg2MjMsMzEuNjU3MzUsMjQsMzIsMjR6IE0zNS44NTQ3NCwyOC41aDIuNjc1NzImIzEwOyYjOTsmIzk7QzM4LjgyOTI4LDI5LjI3NzcxLDM5LDMwLjExODQxLDM5LDMxcy0wLjE3MDcyLDEuNzIyMjktMC40Njk1NCwyLjVoLTIuNjc1NzJDMzUuOTUxMjMsMzIuNjg1MDYsMzYsMzEuODQxNjEsMzYsMzEmIzEwOyYjOTsmIzk7UzM1Ljk1MTIzLDI5LjMxNDk0LDM1Ljg1NDc0LDI4LjV6IE0zNy4zNTQwNiwyNi41aC0xLjg1Mzg4Yy0wLjE2MDY0LTAuNjczMjItMC4zNTkzOC0xLjMwMDIzLTAuNTk2NTYtMS44NjEzOSYjMTA7JiM5OyYjOTtDMzUuODUyNTQsMjUuMDczNjEsMzYuNjg5MzksMjUuNzEwNTcsMzcuMzU0MDYsMjYuNXogTTI5LjA5NjM3LDI0LjYzODYxYy0wLjIzNzE4LDAuNTYxMTYtMC40MzU5MSwxLjE4ODE3LTAuNTk2NTYsMS44NjEzOSYjMTA7JiM5OyYjOTtoLTEuODUzODhDMjcuMzEwNjEsMjUuNzEwNTcsMjguMTQ3NDYsMjUuMDczNjEsMjkuMDk2MzcsMjQuNjM4NjF6IE0yNi42NDU5NCwzNS41aDEuODUzODgmIzEwOyYjOTsmIzk7YzAuMTYwNjQsMC42NzMyMiwwLjM1OTM4LDEuMzAwMjMsMC41OTY1NiwxLjg2MTM5QzI4LjE0NzQ2LDM2LjkyNjM5LDI3LjMxMDYxLDM2LjI4OTQzLDI2LjY0NTk0LDM1LjV6IE0zNC45MDM2MywzNy4zNjEzOSYjMTA7JiM5OyYjOTtjMC4yMzcxOC0wLjU2MTE2LDAuNDM1OTEtMS4xODgxNywwLjU5NjU2LTEuODYxMzloMS44NTM4OEMzNi42ODkzOSwzNi4yODk0MywzNS44NTI1NCwzNi45MjYzOSwzNC45MDM2MywzNy4zNjEzOXoiLz4mI3hhOwk8Y2lyY2xlIHI9IjEiIGN5PSIxNSIgY3g9IjEyIi8+JiN4YTsJPGNpcmNsZSByPSIxIiBjeT0iMTUiIGN4PSIxNiIvPiYjeGE7CTxjaXJjbGUgcj0iMSIgY3k9IjE1IiBjeD0iMjAiLz4mI3hhOwk8cGF0aCBkPSJNNTQsMTBIMTBjLTEuNjU0MywwLTMsMS4zNDU3LTMsM3YxOWMwLDAuNTUyMjUsMC40NDc3NSwxLDEsMXMxLTAuNDQ3NzUsMS0xVjIwaDQ2djMxYzAsMC41NTEyNy0wLjQ0ODczLDEtMSwxSDEwJiMxMDsmIzk7JiM5O2MtMC41NTEyNywwLTEtMC40NDg3My0xLTFWNDBjMC0wLjU1MjI1LTAuNDQ3NzUtMS0xLTFzLTEsMC40NDc3NS0xLDF2MTFjMCwxLjY1NDMsMS4zNDU3LDMsMywzaDQ0YzEuNjU0MywwLDMtMS4zNDU3LDMtM1YxMyYjMTA7JiM5OyYjOTtDNTcsMTEuMzQ1Nyw1NS42NTQzLDEwLDU0LDEweiBNOSwxOHYtNWMwLTAuNTUxMjcsMC40NDg3My0xLDEtMWgxMi4zMDY4MmwyLjI1LDZIOXogTTI2LjY5MzE4LDE4bC0yLjI1LTZoMi4zNjM2NWwyLjI1LDZIMjYuNjkzMTgmIzEwOyYjOTsmIzk7eiBNNTUsMThIMzEuMTkzMThsLTIuMjUtNkg1NGMwLjU1MTI3LDAsMSwwLjQ0ODczLDEsMVYxOHoiLz4mI3hhOwk8Y2lyY2xlIHI9IjEiIGN5PSIzNiIgY3g9IjgiLz4mI3hhOzwvZz4mI3hhOzwvc3ZnPg==;" vertex="1" parent="Uovh46UTTe6WOonXCwlF-112">
          <mxGeometry x="110" y="139" width="64" height="64" as="geometry" />
        </mxCell>
        <mxCell id="Uovh46UTTe6WOonXCwlF-102" value="" style="shape=image;verticalLabelPosition=bottom;labelBackgroundColor=default;verticalAlign=top;aspect=fixed;imageAspect=0;image=https://cdn1.iconfinder.com/data/icons/programing-development-8/24/react_logo-512.png;" vertex="1" parent="Uovh46UTTe6WOonXCwlF-112">
          <mxGeometry x="110" width="38" height="38" as="geometry" />
        </mxCell>
        <mxCell id="Uovh46UTTe6WOonXCwlF-115" value="" style="group" vertex="1" connectable="0" parent="1">
          <mxGeometry x="310" y="178" width="140" height="159.8" as="geometry" />
        </mxCell>
        <mxCell id="Uovh46UTTe6WOonXCwlF-130" value="" style="group" vertex="1" connectable="0" parent="Uovh46UTTe6WOonXCwlF-115">
          <mxGeometry x="6.239999999999998" width="58.20000000000002" height="91.30000000000001" as="geometry" />
        </mxCell>
        <mxCell id="Uovh46UTTe6WOonXCwlF-129" value="" style="shape=image;verticalLabelPosition=bottom;labelBackgroundColor=default;verticalAlign=top;aspect=fixed;imageAspect=0;image=https://icon-library.com/images/load-balancer-icon/load-balancer-icon-14.jpg;rotation=-90;" vertex="1" parent="Uovh46UTTe6WOonXCwlF-130">
          <mxGeometry x="-6.239999999999998" y="26.86" width="70.68" height="58.2" as="geometry" />
        </mxCell>
        <mxCell id="Uovh46UTTe6WOonXCwlF-116" style="edgeStyle=orthogonalEdgeStyle;rounded=0;orthogonalLoop=1;jettySize=auto;html=1;entryX=0;entryY=0.5;entryDx=0;entryDy=0;exitX=0.5;exitY=1;exitDx=0;exitDy=0;startArrow=classic;startFill=1;" edge="1" parent="1" source="Uovh46UTTe6WOonXCwlF-87" target="Uovh46UTTe6WOonXCwlF-92">
          <mxGeometry relative="1" as="geometry">
            <Array as="points">
              <mxPoint x="752" y="484" />
            </Array>
          </mxGeometry>
        </mxCell>
        <mxCell id="Uovh46UTTe6WOonXCwlF-118" style="edgeStyle=orthogonalEdgeStyle;rounded=0;orthogonalLoop=1;jettySize=auto;html=1;entryX=0;entryY=0.5;entryDx=0;entryDy=0;exitX=0.5;exitY=1;exitDx=0;exitDy=0;" edge="1" parent="1" source="Uovh46UTTe6WOonXCwlF-79" target="Uovh46UTTe6WOonXCwlF-108">
          <mxGeometry relative="1" as="geometry" />
        </mxCell>
        <mxCell id="Uovh46UTTe6WOonXCwlF-119" value="" style="shape=image;verticalLabelPosition=bottom;labelBackgroundColor=default;verticalAlign=top;aspect=fixed;imageAspect=0;image=https://upload.wikimedia.org/wikipedia/commons/9/94/Cloudflare_Logo.png;" vertex="1" parent="1">
          <mxGeometry x="390" y="390" width="48" height="48" as="geometry" />
        </mxCell>
        <mxCell id="Uovh46UTTe6WOonXCwlF-121" value="domain" style="text;html=1;strokeColor=none;fillColor=none;align=center;verticalAlign=middle;whiteSpace=wrap;rounded=0;fontStyle=1" vertex="1" parent="1">
          <mxGeometry x="160" y="460" width="100" height="15.55" as="geometry" />
        </mxCell>
        <mxCell id="Uovh46UTTe6WOonXCwlF-124" style="edgeStyle=orthogonalEdgeStyle;rounded=0;orthogonalLoop=1;jettySize=auto;html=1;exitX=1;exitY=0.5;exitDx=0;exitDy=0;" edge="1" parent="1" source="Uovh46UTTe6WOonXCwlF-79">
          <mxGeometry relative="1" as="geometry">
            <mxPoint x="310" y="233.19999999999993" as="targetPoint" />
          </mxGeometry>
        </mxCell>
        <mxCell id="Uovh46UTTe6WOonXCwlF-126" value="IP" style="text;html=1;strokeColor=none;fillColor=none;align=center;verticalAlign=middle;whiteSpace=wrap;rounded=0;fontStyle=1" vertex="1" parent="1">
          <mxGeometry x="204" y="430" width="80" height="15.55" as="geometry" />
        </mxCell>
        <mxCell id="Uovh46UTTe6WOonXCwlF-127" value="IP" style="text;html=1;strokeColor=none;fillColor=none;align=center;verticalAlign=middle;whiteSpace=wrap;rounded=0;fontStyle=1" vertex="1" parent="1">
          <mxGeometry x="260" y="215.32000000000002" width="40" height="15.55" as="geometry" />
        </mxCell>
        <mxCell id="Uovh46UTTe6WOonXCwlF-104" value="" style="shape=image;verticalLabelPosition=bottom;labelBackgroundColor=default;verticalAlign=top;aspect=fixed;imageAspect=0;image=https://cdn.icon-icons.com/icons2/2699/PNG/512/nginx_logo_icon_169915.png;" vertex="1" parent="1">
          <mxGeometry x="360" y="178" width="32" height="32" as="geometry" />
        </mxCell>
      </root>
    </mxGraphModel>
  </diagram>
</mxfile>
